<svg width="411" height="63" viewBox="0 0 411 63" fill="none" xmlns="http://www.w3.org/2000/svg">
<path d="M0 20C0 8.9543 8.9543 0 20 0H391C402.046 0 411 8.95431 411 20V63H0V20Z" fill="#D7E9F7"/>
<path d="M184.191 38H186.151V18.428H184.191V27.22H173.579V18.428H171.619V38H173.579V28.844H184.191V38ZM203.867 22.712H201.907V31.028C201.907 34.752 199.919 36.544 197.063 36.544C194.263 36.544 192.415 34.808 192.415 31.42V22.712H190.483V31.644C190.483 36.124 193.227 38.252 196.699 38.252C198.967 38.252 200.983 37.244 201.907 35.312V38H203.867V22.712ZM210.301 29.46C210.301 25.624 212.457 24.476 215.005 24.476H215.537V22.432C212.905 22.432 211.141 23.552 210.301 25.428V22.712H208.341V38H210.301V29.46ZM231.73 22.712H229.77V31.028C229.77 34.752 227.782 36.544 224.926 36.544C222.126 36.544 220.278 34.808 220.278 31.42V22.712H218.346V31.644C218.346 36.124 221.09 38.252 224.562 38.252C226.83 38.252 228.846 37.244 229.77 35.312V38H231.73V22.712ZM236.709 38H238.669V24.364H242.225V22.712H238.669V21.648C238.669 19.436 239.509 18.484 242.113 18.484V16.804C238.249 16.804 236.709 18.372 236.709 21.648V22.712H234.581V24.364H236.709V38Z" fill="#354364"/>
<path d="M70.1707 55H341.832" stroke="#11698E" stroke-width="2"/>
</svg>
