<svg width="371" height="362" viewBox="0 0 371 362" fill="none" xmlns="http://www.w3.org/2000/svg">
<rect y="32" width="370.526" height="330" rx="15" fill="#A2D2FF"/>
<mask id="mask0_72_156" style="mask-type:alpha" maskUnits="userSpaceOnUse" x="0" y="32" width="371" height="330">
<rect y="32" width="370.526" height="330" rx="15" fill="#C4C4C4"/>
</mask>
<g mask="url(#mask0_72_156)">
<g filter="url(#filter0_b_72_156)">
<path fill-rule="evenodd" clip-rule="evenodd" d="M-7.20862 172.172C-7.20862 163.888 -0.492888 157.172 7.79138 157.172H8.65048C22.8941 157.172 54.024 157.172 83.9672 173.022C84.6955 173.408 85.452 173.741 86.2278 174.019C117.523 185.241 147.446 212.499 178.775 255.793C208.64 299.028 238.504 352.924 269.752 359.642C270.614 359.827 271.471 360.057 272.313 360.319C302.203 369.633 333.242 326.714 347.459 305.103C352.439 298.221 363.318 301.744 363.318 310.24V438.034C363.318 446.319 356.602 453.034 348.318 453.034H347.459C333.041 453.034 301.323 453.034 271.047 453.034C239.328 453.034 209.052 453.034 178.775 453.034C147.057 453.034 116.781 453.034 85.0625 453.034C54.7861 453.034 23.0679 453.034 8.65048 453.034H7.79138C-0.492888 453.034 -7.20862 446.319 -7.20862 438.034V172.172Z" fill="url(#paint0_radial_72_156)"/>
</g>
</g>
<mask id="mask1_72_156" style="mask-type:alpha" maskUnits="userSpaceOnUse" x="0" y="32" width="371" height="330">
<rect y="32" width="370.526" height="330" rx="15" fill="#A2D2FF"/>
</mask>
<g mask="url(#mask1_72_156)">
<g filter="url(#filter1_b_72_156)">
<path fill-rule="evenodd" clip-rule="evenodd" d="M370.526 125.103C370.526 133.388 363.811 140.103 355.526 140.103H354.667C340.424 140.103 309.294 140.103 279.351 124.254C278.622 123.868 277.866 123.535 277.09 123.256C245.795 112.035 215.872 84.7771 184.542 41.4828C154.678 -1.75185 124.814 -55.6479 93.566 -62.3658C92.7041 -62.5511 91.8467 -62.7809 91.005 -63.0432C61.1143 -72.3576 30.0757 -29.438 15.8592 -7.82758V-7.82758C10.8786 -0.944882 6.63996e-05 -4.46809 6.63996e-05 -12.9639V-140.759C6.63996e-05 -149.043 6.7158 -155.759 15.0001 -155.759H15.8592C30.2765 -155.759 61.9947 -155.759 92.2712 -155.759C123.989 -155.759 154.266 -155.759 184.542 -155.759C216.261 -155.759 246.537 -155.759 278.255 -155.759C308.532 -155.759 340.25 -155.759 354.667 -155.759H355.526C363.811 -155.759 370.526 -149.043 370.526 -140.759V125.103Z" fill="url(#paint1_radial_72_156)"/>
</g>
</g>
<defs>
<filter id="filter0_b_72_156" x="-49.2086" y="115.172" width="454.526" height="379.862" filterUnits="userSpaceOnUse" color-interpolation-filters="sRGB">
<feFlood flood-opacity="0" result="BackgroundImageFix"/>
<feGaussianBlur in="BackgroundImage" stdDeviation="21"/>
<feComposite in2="SourceAlpha" operator="in" result="effect1_backgroundBlur_72_156"/>
<feBlend mode="normal" in="SourceGraphic" in2="effect1_backgroundBlur_72_156" result="shape"/>
</filter>
<filter id="filter1_b_72_156" x="-41.9999" y="-197.759" width="454.526" height="379.862" filterUnits="userSpaceOnUse" color-interpolation-filters="sRGB">
<feFlood flood-opacity="0" result="BackgroundImageFix"/>
<feGaussianBlur in="BackgroundImage" stdDeviation="21"/>
<feComposite in2="SourceAlpha" operator="in" result="effect1_backgroundBlur_72_156"/>
<feBlend mode="normal" in="SourceGraphic" in2="effect1_backgroundBlur_72_156" result="shape"/>
</filter>
<radialGradient id="paint0_radial_72_156" cx="0" cy="0" r="1" gradientUnits="userSpaceOnUse" gradientTransform="translate(-3.87583 165.975) rotate(37.7074) scale(456.943 707.633)">
<stop stop-color="#8DD2E5" stop-opacity="0.4"/>
<stop offset="1" stop-color="white" stop-opacity="0"/>
</radialGradient>
<radialGradient id="paint1_radial_72_156" cx="0" cy="0" r="1" gradientUnits="userSpaceOnUse" gradientTransform="translate(367.194 131.301) rotate(-142.293) scale(456.943 707.633)">
<stop stop-color="#F8F1F1" stop-opacity="0.4"/>
<stop offset="1" stop-color="white" stop-opacity="0"/>
</radialGradient>
</defs>
</svg>
