<svg width="689" height="534" viewBox="0 0 689 534" fill="none" xmlns="http://www.w3.org/2000/svg">
<g filter="url(#filter0_b_94_161)">
<path fill-rule="evenodd" clip-rule="evenodd" d="M348.429 81.3992C389.899 97.4794 441.177 98.5773 467.212 134.639C491.727 168.595 448.935 224.303 475.169 256.949C530.87 326.264 678.073 319.66 686.989 408.134C694.228 479.971 571.768 496.368 500.399 507.297C446.639 515.529 402.676 456.087 348.429 459.977C286.145 464.444 240.437 545.008 179.752 530.294C119.385 515.659 91.341 446.175 63.1687 390.816C30.2323 326.096 -8.82365 257.804 4.77755 186.47C19.0552 111.588 63.5681 28.6775 136.467 6.38867C209.938 -16.0748 276.798 53.6233 348.429 81.3992Z" fill="url(#paint0_radial_94_161)"/>
<path fill-rule="evenodd" clip-rule="evenodd" d="M348.429 81.3992C389.899 97.4794 441.177 98.5773 467.212 134.639C491.727 168.595 448.935 224.303 475.169 256.949C530.87 326.264 678.073 319.66 686.989 408.134C694.228 479.971 571.768 496.368 500.399 507.297C446.639 515.529 402.676 456.087 348.429 459.977C286.145 464.444 240.437 545.008 179.752 530.294C119.385 515.659 91.341 446.175 63.1687 390.816C30.2323 326.096 -8.82365 257.804 4.77755 186.47C19.0552 111.588 63.5681 28.6775 136.467 6.38867C209.938 -16.0748 276.798 53.6233 348.429 81.3992Z" stroke="url(#paint1_radial_94_161)" stroke-width="3"/>
<path fill-rule="evenodd" clip-rule="evenodd" d="M348.429 81.3992C389.899 97.4794 441.177 98.5773 467.212 134.639C491.727 168.595 448.935 224.303 475.169 256.949C530.87 326.264 678.073 319.66 686.989 408.134C694.228 479.971 571.768 496.368 500.399 507.297C446.639 515.529 402.676 456.087 348.429 459.977C286.145 464.444 240.437 545.008 179.752 530.294C119.385 515.659 91.341 446.175 63.1687 390.816C30.2323 326.096 -8.82365 257.804 4.77755 186.47C19.0552 111.588 63.5681 28.6775 136.467 6.38867C209.938 -16.0748 276.798 53.6233 348.429 81.3992Z" stroke="url(#paint2_radial_94_161)" stroke-width="3"/>
<path fill-rule="evenodd" clip-rule="evenodd" d="M348.429 81.3992C389.899 97.4794 441.177 98.5773 467.212 134.639C491.727 168.595 448.935 224.303 475.169 256.949C530.87 326.264 678.073 319.66 686.989 408.134C694.228 479.971 571.768 496.368 500.399 507.297C446.639 515.529 402.676 456.087 348.429 459.977C286.145 464.444 240.437 545.008 179.752 530.294C119.385 515.659 91.341 446.175 63.1687 390.816C30.2323 326.096 -8.82365 257.804 4.77755 186.47C19.0552 111.588 63.5681 28.6775 136.467 6.38867C209.938 -16.0748 276.798 53.6233 348.429 81.3992Z" stroke="url(#paint3_linear_94_161)" stroke-width="3"/>
</g>
<defs>
<filter id="filter0_b_94_161" x="-41.5001" y="-41.5004" width="772.296" height="617.087" filterUnits="userSpaceOnUse" color-interpolation-filters="sRGB">
<feFlood flood-opacity="0" result="BackgroundImageFix"/>
<feGaussianBlur in="BackgroundImage" stdDeviation="21"/>
<feComposite in2="SourceAlpha" operator="in" result="effect1_backgroundBlur_94_161"/>
<feBlend mode="normal" in="SourceGraphic" in2="effect1_backgroundBlur_94_161" result="shape"/>
</filter>
<radialGradient id="paint0_radial_94_161" cx="0" cy="0" r="1" gradientUnits="userSpaceOnUse" gradientTransform="translate(8.16407 17.7712) rotate(36.83) scale(835.335 1282.71)">
<stop stop-color="#A2D2FF" stop-opacity="0.4"/>
<stop offset="1" stop-color="white" stop-opacity="0"/>
</radialGradient>
<radialGradient id="paint1_radial_94_161" cx="0" cy="0" r="1" gradientUnits="userSpaceOnUse" gradientTransform="translate(8.16407 17.7712) rotate(36.83) scale(835.335 1282.71)">
<stop stop-color="#D8D8D8" stop-opacity="0"/>
<stop offset="1" stop-color="#D8D8D8"/>
</radialGradient>
<radialGradient id="paint2_radial_94_161" cx="0" cy="0" r="1" gradientUnits="userSpaceOnUse" gradientTransform="translate(11.4273 515.878) rotate(-36.8198) scale(831.147 1274.81)">
<stop stop-color="#D8D8D8" stop-opacity="0"/>
<stop offset="1" stop-color="#D8D8D8"/>
</radialGradient>
<linearGradient id="paint3_linear_94_161" x1="14.6907" y1="16.4569" x2="725.34" y2="436.205" gradientUnits="userSpaceOnUse">
<stop stop-color="#A2D2FF" stop-opacity="0.9"/>
<stop offset="1" stop-color="#A2D2FF" stop-opacity="0"/>
</linearGradient>
</defs>
</svg>
