<svg width="152" height="489" viewBox="0 0 152 489" fill="none" xmlns="http://www.w3.org/2000/svg">
<g filter="url(#filter0_b_151_163)">
<path fill-rule="evenodd" clip-rule="evenodd" d="M387.035 48.0649C373.913 44.6256 360.739 41.1725 348.429 36.3992C325.672 27.5746 303.396 14.5186 281.236 1.53087C233.647 -26.3611 186.596 -53.938 136.467 -38.6113C63.5681 -16.3225 19.0552 66.5884 4.77754 141.47C-1.41752 173.961 3.31174 205.821 13.4112 237H152V473.657C160.446 478.857 169.646 482.844 179.752 485.294C212.919 493.336 241.613 472.917 270.983 452.017C295.352 434.676 320.186 417.003 348.429 414.977C374.774 413.088 398.693 426.136 422.487 439.115C447.688 452.861 472.747 466.531 500.399 462.297C502.523 461.972 504.693 461.642 506.903 461.305C578.943 450.343 694.013 432.833 686.989 363.134C681.891 312.553 631.596 293.048 579.04 272.666C539.667 257.397 499.026 241.636 475.169 211.949C461.902 195.439 466.289 173.03 470.696 150.52C475.003 128.52 479.329 106.423 467.212 89.6391C448.905 64.282 418.117 56.2121 387.035 48.0649Z" fill="url(#paint0_radial_151_163)"/>
<path d="M348.429 36.3992L347.887 37.7977L347.887 37.7977L348.429 36.3992ZM387.035 48.0649L387.415 46.614L387.415 46.614L387.035 48.0649ZM281.236 1.53087L280.478 2.82497L280.478 2.82497L281.236 1.53087ZM136.467 -38.6113L136.029 -40.0458L136.467 -38.6113ZM4.77754 141.47L3.30409 141.189L3.30409 141.189L4.77754 141.47ZM13.4112 237L11.9842 237.462L12.3204 238.5H13.4112V237ZM152 237H153.5V235.5H152V237ZM152 473.657H150.5V474.494L151.214 474.934L152 473.657ZM179.752 485.294L180.105 483.837L180.105 483.837L179.752 485.294ZM270.983 452.017L271.853 453.239L271.853 453.239L270.983 452.017ZM348.429 414.977L348.537 416.474L348.537 416.474L348.429 414.977ZM422.487 439.115L421.769 440.432L421.769 440.432L422.487 439.115ZM500.399 462.297L500.172 460.814L500.172 460.814L500.399 462.297ZM506.903 461.305L507.128 462.788L507.128 462.788L506.903 461.305ZM686.989 363.134L688.481 362.984L688.481 362.984L686.989 363.134ZM579.04 272.666L578.497 274.065L578.497 274.065L579.04 272.666ZM475.169 211.949L476.339 211.009L476.339 211.009L475.169 211.949ZM470.696 150.52L472.168 150.808L472.168 150.808L470.696 150.52ZM467.212 89.6391L468.428 88.7611L468.428 88.7611L467.212 89.6391ZM347.887 37.7977C360.29 42.6072 373.549 46.0807 386.655 49.5159L387.415 46.614C374.278 43.1705 361.188 39.7377 348.972 35.0006L347.887 37.7977ZM280.478 2.82497C302.615 15.7999 324.997 28.9218 347.887 37.7977L348.972 35.0006C326.347 26.2275 304.176 13.2373 281.995 0.236762L280.478 2.82497ZM136.906 -37.1769C161.571 -44.7183 185.524 -41.7282 209.305 -33.3328C233.122 -24.9245 256.655 -11.1376 280.478 2.82497L281.995 0.236762C258.229 -13.6927 234.442 -27.6402 210.304 -36.1617C186.129 -44.6961 161.492 -47.8311 136.029 -40.0458L136.906 -37.1769ZM6.251 141.751C13.3582 104.476 27.9892 65.2234 49.8855 32.542C71.7832 -0.141396 100.882 -26.1627 136.906 -37.1769L136.029 -40.0458C99.1531 -28.7711 69.5463 -2.19257 47.3932 30.8721C25.2388 63.9388 10.4746 103.582 3.30409 141.189L6.251 141.751ZM14.8383 236.538C4.78747 205.509 0.118101 173.916 6.251 141.751L3.30409 141.189C-2.95314 174.006 1.836 206.133 11.9842 237.462L14.8383 236.538ZM13.4112 238.5H152V235.5H13.4112V238.5ZM150.5 237V473.657H153.5V237H150.5ZM180.105 483.837C170.162 481.426 161.108 477.503 152.786 472.379L151.214 474.934C159.785 480.211 169.13 484.263 179.398 486.752L180.105 483.837ZM270.114 450.794C255.4 461.265 241.008 471.5 226.178 478.14C211.389 484.762 196.271 487.756 180.105 483.837L179.398 486.752C196.399 490.874 212.213 487.68 227.404 480.878C242.556 474.094 257.196 463.669 271.853 453.239L270.114 450.794ZM348.322 413.481C319.582 415.543 294.395 433.515 270.114 450.794L271.853 453.239C296.308 435.836 320.791 418.463 348.537 416.474L348.322 413.481ZM423.205 437.798C399.5 424.867 375.184 411.555 348.322 413.481L348.537 416.474C374.365 414.621 397.887 427.404 421.769 440.432L423.205 437.798ZM500.172 460.814C473.109 464.958 448.51 451.601 423.205 437.798L421.769 440.432C446.865 454.122 472.386 468.104 500.626 463.78L500.172 460.814ZM506.677 459.822C504.467 460.159 502.297 460.489 500.172 460.814L500.626 463.78C502.749 463.455 504.918 463.125 507.128 462.788L506.677 459.822ZM685.496 363.284C687.204 380.229 681.515 393.973 670.852 405.308C660.143 416.692 644.399 425.657 626.048 432.849C589.339 447.237 542.738 454.335 506.677 459.822L507.128 462.788C543.108 457.313 590.062 450.175 627.142 435.643C645.685 428.375 661.894 419.209 673.037 407.364C684.225 395.47 690.286 380.888 688.481 362.984L685.496 363.284ZM578.497 274.065C604.822 284.274 630.351 294.183 649.955 307.807C669.495 321.387 683.004 338.556 685.496 363.284L688.481 362.984C685.876 337.13 671.688 319.257 651.667 305.343C631.71 291.474 605.814 281.441 579.582 271.268L578.497 274.065ZM474 212.889C498.158 242.952 539.234 258.838 578.497 274.065L579.582 271.268C540.1 255.956 499.893 240.321 476.339 211.009L474 212.889ZM469.224 150.232C467.027 161.453 464.794 172.832 464.805 183.486C464.816 194.177 467.084 204.282 474 212.889L476.339 211.009C469.988 203.106 467.815 193.751 467.805 183.483C467.794 173.177 469.958 162.097 472.168 150.808L469.224 150.232ZM465.996 90.5172C471.804 98.5627 473.716 107.93 473.613 118.108C473.509 128.317 471.383 139.201 469.224 150.232L472.168 150.808C474.315 139.839 476.506 128.674 476.613 118.138C476.72 107.572 474.737 97.499 468.428 88.7611L465.996 90.5172ZM386.655 49.5159C417.862 57.6957 448.06 65.6733 465.996 90.5172L468.428 88.7611C449.751 62.8907 418.373 54.7284 387.415 46.614L386.655 49.5159Z" fill="url(#paint1_radial_151_163)"/>
<path d="M348.429 36.3992L347.887 37.7977L347.887 37.7977L348.429 36.3992ZM387.035 48.0649L387.415 46.614L387.415 46.614L387.035 48.0649ZM281.236 1.53087L280.478 2.82497L280.478 2.82497L281.236 1.53087ZM136.467 -38.6113L136.029 -40.0458L136.467 -38.6113ZM4.77754 141.47L3.30409 141.189L3.30409 141.189L4.77754 141.47ZM13.4112 237L11.9842 237.462L12.3204 238.5H13.4112V237ZM152 237H153.5V235.5H152V237ZM152 473.657H150.5V474.494L151.214 474.934L152 473.657ZM179.752 485.294L180.105 483.837L180.105 483.837L179.752 485.294ZM270.983 452.017L271.853 453.239L271.853 453.239L270.983 452.017ZM348.429 414.977L348.537 416.474L348.537 416.474L348.429 414.977ZM422.487 439.115L421.769 440.432L421.769 440.432L422.487 439.115ZM500.399 462.297L500.172 460.814L500.172 460.814L500.399 462.297ZM506.903 461.305L507.128 462.788L507.128 462.788L506.903 461.305ZM686.989 363.134L688.481 362.984L688.481 362.984L686.989 363.134ZM579.04 272.666L578.497 274.065L578.497 274.065L579.04 272.666ZM475.169 211.949L476.339 211.009L476.339 211.009L475.169 211.949ZM470.696 150.52L472.168 150.808L472.168 150.808L470.696 150.52ZM467.212 89.6391L468.428 88.7611L468.428 88.7611L467.212 89.6391ZM347.887 37.7977C360.29 42.6072 373.549 46.0807 386.655 49.5159L387.415 46.614C374.278 43.1705 361.188 39.7377 348.972 35.0006L347.887 37.7977ZM280.478 2.82497C302.615 15.7999 324.997 28.9218 347.887 37.7977L348.972 35.0006C326.347 26.2275 304.176 13.2373 281.995 0.236762L280.478 2.82497ZM136.906 -37.1769C161.571 -44.7183 185.524 -41.7282 209.305 -33.3328C233.122 -24.9245 256.655 -11.1376 280.478 2.82497L281.995 0.236762C258.229 -13.6927 234.442 -27.6402 210.304 -36.1617C186.129 -44.6961 161.492 -47.8311 136.029 -40.0458L136.906 -37.1769ZM6.251 141.751C13.3582 104.476 27.9892 65.2234 49.8855 32.542C71.7832 -0.141396 100.882 -26.1627 136.906 -37.1769L136.029 -40.0458C99.1531 -28.7711 69.5463 -2.19257 47.3932 30.8721C25.2388 63.9388 10.4746 103.582 3.30409 141.189L6.251 141.751ZM14.8383 236.538C4.78747 205.509 0.118101 173.916 6.251 141.751L3.30409 141.189C-2.95314 174.006 1.836 206.133 11.9842 237.462L14.8383 236.538ZM13.4112 238.5H152V235.5H13.4112V238.5ZM150.5 237V473.657H153.5V237H150.5ZM180.105 483.837C170.162 481.426 161.108 477.503 152.786 472.379L151.214 474.934C159.785 480.211 169.13 484.263 179.398 486.752L180.105 483.837ZM270.114 450.794C255.4 461.265 241.008 471.5 226.178 478.14C211.389 484.762 196.271 487.756 180.105 483.837L179.398 486.752C196.399 490.874 212.213 487.68 227.404 480.878C242.556 474.094 257.196 463.669 271.853 453.239L270.114 450.794ZM348.322 413.481C319.582 415.543 294.395 433.515 270.114 450.794L271.853 453.239C296.308 435.836 320.791 418.463 348.537 416.474L348.322 413.481ZM423.205 437.798C399.5 424.867 375.184 411.555 348.322 413.481L348.537 416.474C374.365 414.621 397.887 427.404 421.769 440.432L423.205 437.798ZM500.172 460.814C473.109 464.958 448.51 451.601 423.205 437.798L421.769 440.432C446.865 454.122 472.386 468.104 500.626 463.78L500.172 460.814ZM506.677 459.822C504.467 460.159 502.297 460.489 500.172 460.814L500.626 463.78C502.749 463.455 504.918 463.125 507.128 462.788L506.677 459.822ZM685.496 363.284C687.204 380.229 681.515 393.973 670.852 405.308C660.143 416.692 644.399 425.657 626.048 432.849C589.339 447.237 542.738 454.335 506.677 459.822L507.128 462.788C543.108 457.313 590.062 450.175 627.142 435.643C645.685 428.375 661.894 419.209 673.037 407.364C684.225 395.47 690.286 380.888 688.481 362.984L685.496 363.284ZM578.497 274.065C604.822 284.274 630.351 294.183 649.955 307.807C669.495 321.387 683.004 338.556 685.496 363.284L688.481 362.984C685.876 337.13 671.688 319.257 651.667 305.343C631.71 291.474 605.814 281.441 579.582 271.268L578.497 274.065ZM474 212.889C498.158 242.952 539.234 258.838 578.497 274.065L579.582 271.268C540.1 255.956 499.893 240.321 476.339 211.009L474 212.889ZM469.224 150.232C467.027 161.453 464.794 172.832 464.805 183.486C464.816 194.177 467.084 204.282 474 212.889L476.339 211.009C469.988 203.106 467.815 193.751 467.805 183.483C467.794 173.177 469.958 162.097 472.168 150.808L469.224 150.232ZM465.996 90.5172C471.804 98.5627 473.716 107.93 473.613 118.108C473.509 128.317 471.383 139.201 469.224 150.232L472.168 150.808C474.315 139.839 476.506 128.674 476.613 118.138C476.72 107.572 474.737 97.499 468.428 88.7611L465.996 90.5172ZM386.655 49.5159C417.862 57.6957 448.06 65.6733 465.996 90.5172L468.428 88.7611C449.751 62.8907 418.373 54.7284 387.415 46.614L386.655 49.5159Z" fill="url(#paint2_radial_151_163)"/>
<path d="M348.429 36.3992L347.887 37.7977L347.887 37.7977L348.429 36.3992ZM387.035 48.0649L387.415 46.614L387.415 46.614L387.035 48.0649ZM281.236 1.53087L280.478 2.82497L280.478 2.82497L281.236 1.53087ZM136.467 -38.6113L136.029 -40.0458L136.467 -38.6113ZM4.77754 141.47L3.30409 141.189L3.30409 141.189L4.77754 141.47ZM13.4112 237L11.9842 237.462L12.3204 238.5H13.4112V237ZM152 237H153.5V235.5H152V237ZM152 473.657H150.5V474.494L151.214 474.934L152 473.657ZM179.752 485.294L180.105 483.837L180.105 483.837L179.752 485.294ZM270.983 452.017L271.853 453.239L271.853 453.239L270.983 452.017ZM348.429 414.977L348.537 416.474L348.537 416.474L348.429 414.977ZM422.487 439.115L421.769 440.432L421.769 440.432L422.487 439.115ZM500.399 462.297L500.172 460.814L500.172 460.814L500.399 462.297ZM506.903 461.305L507.128 462.788L507.128 462.788L506.903 461.305ZM686.989 363.134L688.481 362.984L688.481 362.984L686.989 363.134ZM579.04 272.666L578.497 274.065L578.497 274.065L579.04 272.666ZM475.169 211.949L476.339 211.009L476.339 211.009L475.169 211.949ZM470.696 150.52L472.168 150.808L472.168 150.808L470.696 150.52ZM467.212 89.6391L468.428 88.7611L468.428 88.7611L467.212 89.6391ZM347.887 37.7977C360.29 42.6072 373.549 46.0807 386.655 49.5159L387.415 46.614C374.278 43.1705 361.188 39.7377 348.972 35.0006L347.887 37.7977ZM280.478 2.82497C302.615 15.7999 324.997 28.9218 347.887 37.7977L348.972 35.0006C326.347 26.2275 304.176 13.2373 281.995 0.236762L280.478 2.82497ZM136.906 -37.1769C161.571 -44.7183 185.524 -41.7282 209.305 -33.3328C233.122 -24.9245 256.655 -11.1376 280.478 2.82497L281.995 0.236762C258.229 -13.6927 234.442 -27.6402 210.304 -36.1617C186.129 -44.6961 161.492 -47.8311 136.029 -40.0458L136.906 -37.1769ZM6.251 141.751C13.3582 104.476 27.9892 65.2234 49.8855 32.542C71.7832 -0.141396 100.882 -26.1627 136.906 -37.1769L136.029 -40.0458C99.1531 -28.7711 69.5463 -2.19257 47.3932 30.8721C25.2388 63.9388 10.4746 103.582 3.30409 141.189L6.251 141.751ZM14.8383 236.538C4.78747 205.509 0.118101 173.916 6.251 141.751L3.30409 141.189C-2.95314 174.006 1.836 206.133 11.9842 237.462L14.8383 236.538ZM13.4112 238.5H152V235.5H13.4112V238.5ZM150.5 237V473.657H153.5V237H150.5ZM180.105 483.837C170.162 481.426 161.108 477.503 152.786 472.379L151.214 474.934C159.785 480.211 169.13 484.263 179.398 486.752L180.105 483.837ZM270.114 450.794C255.4 461.265 241.008 471.5 226.178 478.14C211.389 484.762 196.271 487.756 180.105 483.837L179.398 486.752C196.399 490.874 212.213 487.68 227.404 480.878C242.556 474.094 257.196 463.669 271.853 453.239L270.114 450.794ZM348.322 413.481C319.582 415.543 294.395 433.515 270.114 450.794L271.853 453.239C296.308 435.836 320.791 418.463 348.537 416.474L348.322 413.481ZM423.205 437.798C399.5 424.867 375.184 411.555 348.322 413.481L348.537 416.474C374.365 414.621 397.887 427.404 421.769 440.432L423.205 437.798ZM500.172 460.814C473.109 464.958 448.51 451.601 423.205 437.798L421.769 440.432C446.865 454.122 472.386 468.104 500.626 463.78L500.172 460.814ZM506.677 459.822C504.467 460.159 502.297 460.489 500.172 460.814L500.626 463.78C502.749 463.455 504.918 463.125 507.128 462.788L506.677 459.822ZM685.496 363.284C687.204 380.229 681.515 393.973 670.852 405.308C660.143 416.692 644.399 425.657 626.048 432.849C589.339 447.237 542.738 454.335 506.677 459.822L507.128 462.788C543.108 457.313 590.062 450.175 627.142 435.643C645.685 428.375 661.894 419.209 673.037 407.364C684.225 395.47 690.286 380.888 688.481 362.984L685.496 363.284ZM578.497 274.065C604.822 284.274 630.351 294.183 649.955 307.807C669.495 321.387 683.004 338.556 685.496 363.284L688.481 362.984C685.876 337.13 671.688 319.257 651.667 305.343C631.71 291.474 605.814 281.441 579.582 271.268L578.497 274.065ZM474 212.889C498.158 242.952 539.234 258.838 578.497 274.065L579.582 271.268C540.1 255.956 499.893 240.321 476.339 211.009L474 212.889ZM469.224 150.232C467.027 161.453 464.794 172.832 464.805 183.486C464.816 194.177 467.084 204.282 474 212.889L476.339 211.009C469.988 203.106 467.815 193.751 467.805 183.483C467.794 173.177 469.958 162.097 472.168 150.808L469.224 150.232ZM465.996 90.5172C471.804 98.5627 473.716 107.93 473.613 118.108C473.509 128.317 471.383 139.201 469.224 150.232L472.168 150.808C474.315 139.839 476.506 128.674 476.613 118.138C476.72 107.572 474.737 97.499 468.428 88.7611L465.996 90.5172ZM386.655 49.5159C417.862 57.6957 448.06 65.6733 465.996 90.5172L468.428 88.7611C449.751 62.8907 418.373 54.7284 387.415 46.614L386.655 49.5159Z" fill="url(#paint3_linear_151_163)"/>
</g>
<defs>
<filter id="filter0_b_151_163" x="-41.5001" y="-86.5001" width="772.296" height="617.087" filterUnits="userSpaceOnUse" color-interpolation-filters="sRGB">
<feFlood flood-opacity="0" result="BackgroundImageFix"/>
<feGaussianBlur in="BackgroundImage" stdDeviation="21"/>
<feComposite in2="SourceAlpha" operator="in" result="effect1_backgroundBlur_151_163"/>
<feBlend mode="normal" in="SourceGraphic" in2="effect1_backgroundBlur_151_163" result="shape"/>
</filter>
<radialGradient id="paint0_radial_151_163" cx="0" cy="0" r="1" gradientUnits="userSpaceOnUse" gradientTransform="translate(8.16407 -27.2288) rotate(36.83) scale(835.335 1282.71)">
<stop stop-color="#A2D2FF" stop-opacity="0.4"/>
<stop offset="1" stop-color="white" stop-opacity="0"/>
</radialGradient>
<radialGradient id="paint1_radial_151_163" cx="0" cy="0" r="1" gradientUnits="userSpaceOnUse" gradientTransform="translate(8.16407 -27.2288) rotate(36.83) scale(835.335 1282.71)">
<stop stop-color="#D8D8D8" stop-opacity="0"/>
<stop offset="1" stop-color="#D8D8D8"/>
</radialGradient>
<radialGradient id="paint2_radial_151_163" cx="0" cy="0" r="1" gradientUnits="userSpaceOnUse" gradientTransform="translate(11.4273 470.878) rotate(-36.8198) scale(831.147 1274.81)">
<stop stop-color="#D8D8D8" stop-opacity="0"/>
<stop offset="1" stop-color="#D8D8D8"/>
</radialGradient>
<linearGradient id="paint3_linear_151_163" x1="14.6907" y1="-28.5431" x2="725.34" y2="391.205" gradientUnits="userSpaceOnUse">
<stop stop-color="#A2D2FF" stop-opacity="0.9"/>
<stop offset="1" stop-color="#A2D2FF" stop-opacity="0"/>
</linearGradient>
</defs>
</svg>
