<svg width="258" height="66" viewBox="0 0 258 66" fill="none" xmlns="http://www.w3.org/2000/svg">
<rect width="257" height="58" rx="8" fill="#11698E"/>
<mask id="mask0_53_178" style="mask-type:alpha" maskUnits="userSpaceOnUse" x="0" y="0" width="257" height="58">
<rect width="257" height="58" rx="8" fill="#C4C4C4"/>
</mask>
<g mask="url(#mask0_53_178)">
<g filter="url(#filter0_b_53_178)">
<path fill-rule="evenodd" clip-rule="evenodd" d="M-5 30C-5 25.5817 -1.41828 22 3 22H6C16 22 38 22 59 24.8889C81 26.8148 102 31.6296 124 39.3333C145 47.037 166 56.6667 188 57.6296C209 59.5556 231 51.8519 241 48L241.356 47.8753C246.558 46.0539 252 49.9145 252 55.4258V66C252 70.4183 248.418 74 244 74H241C231 74 209 74 188 74C166 74 145 74 124 74C102 74 81 74 59 74C38 74 16 74 6 74H3C-1.41828 74 -5 70.4183 -5 66V30Z" fill="url(#paint0_radial_53_178)"/>
</g>
</g>
<mask id="mask1_53_178" style="mask-type:alpha" maskUnits="userSpaceOnUse" x="0" y="0" width="257" height="58">
<rect width="257" height="58" rx="8" fill="#C4C4C4"/>
</mask>
<g mask="url(#mask1_53_178)">
<g filter="url(#filter1_b_53_178)">
<path fill-rule="evenodd" clip-rule="evenodd" d="M257 11C257 15.4183 253.418 19 249 19H246C236 19 214 19 193 16.1111C171 14.1852 150 9.37037 128 1.66667C107 -6.03704 86 -15.6667 64 -16.6296C43 -18.5556 21 -10.8519 11 -7L10.6439 -6.87532C5.44232 -5.05388 0 -8.91449 0 -14.4258V-25C0 -29.4183 3.58173 -33 8 -33H11C21 -33 43 -33 64 -33C86 -33 107 -33 128 -33C150 -33 171 -33 193 -33C214 -33 236 -33 246 -33H249C253.418 -33 257 -29.4183 257 -25V11Z" fill="url(#paint1_radial_53_178)"/>
</g>
</g>
<path d="M15 28.84V23.2H17.82C20.18 23.2 21.1 24.24 21.1 26.04C21.1 27.76 20.18 28.84 17.82 28.84H15ZM22.54 26.04C22.54 23.74 21.06 22.02 17.82 22.02H13.6V36H15V30.04H17.82C21.1 30.04 22.54 28.3 22.54 26.04ZM24.2491 30.52C24.2491 33.94 26.4691 36.16 29.4491 36.16C31.6291 36.16 33.1491 34.98 33.7891 33.58V36H35.1891V25.08H33.7891V27.48C33.1691 26.1 31.6691 24.92 29.4691 24.92C26.4691 24.92 24.2491 27.1 24.2491 30.52ZM33.7891 30.54C33.7891 33.26 31.9691 34.94 29.7291 34.94C27.4291 34.94 25.6691 33.28 25.6691 30.52C25.6691 27.74 27.4291 26.14 29.7291 26.14C31.9691 26.14 33.7891 27.82 33.7891 30.54ZM46.5652 36H47.9452V29.6C47.9452 26.4 45.9852 24.88 43.5052 24.88C41.8852 24.88 40.4852 25.58 39.7852 26.94V25.08H38.3852V36H39.7852V30.04C39.7852 27.38 41.2052 26.1 43.2452 26.1C45.2452 26.1 46.5652 27.34 46.5652 29.76V36ZM50.4014 30.52C50.4014 33.94 52.6214 36.16 55.6214 36.16C57.7814 36.16 59.3014 35 59.9414 33.56V36H61.3414V21.2H59.9414V27.44C59.2414 26 57.6014 24.92 55.6414 24.92C52.6214 24.92 50.4014 27.1 50.4014 30.52ZM59.9414 30.54C59.9414 33.26 58.1214 34.94 55.8814 34.94C53.5814 34.94 51.8214 33.28 51.8214 30.52C51.8214 27.74 53.5814 26.14 55.8814 26.14C58.1214 26.14 59.9414 27.82 59.9414 30.54ZM73.9975 25.08H72.5975V31.02C72.5975 33.68 71.1775 34.96 69.1375 34.96C67.1375 34.96 65.8175 33.72 65.8175 31.3V25.08H64.4375V31.46C64.4375 34.66 66.3975 36.18 68.8775 36.18C70.4975 36.18 71.9375 35.46 72.5975 34.08V36H73.9975V25.08ZM76.5538 30.52C76.5538 33.94 78.7738 36.16 81.7538 36.16C83.9338 36.16 85.4538 34.98 86.0938 33.58V36H87.4938V25.08H86.0938V27.48C85.4738 26.1 83.9738 24.92 81.7738 24.92C78.7738 24.92 76.5538 27.1 76.5538 30.52ZM86.0938 30.54C86.0938 33.26 84.2738 34.94 82.0338 34.94C79.7338 34.94 77.9738 33.28 77.9738 30.52C77.9738 27.74 79.7338 26.14 82.0338 26.14C84.2738 26.14 86.0938 27.82 86.0938 30.54ZM98.8698 36H100.25V29.6C100.25 26.4 98.2898 24.88 95.8098 24.88C94.1898 24.88 92.7898 25.58 92.0898 26.94V25.08H90.6898V36H92.0898V30.04C92.0898 27.38 93.5098 26.1 95.5498 26.1C97.5498 26.1 98.8698 27.34 98.8698 29.76V36ZM122.034 29C122.034 24.82 119.054 21.86 115.114 21.86C111.194 21.86 108.194 24.82 108.194 29C108.194 33.2 111.194 36.14 115.114 36.14C119.054 36.14 122.034 33.2 122.034 29ZM109.634 29C109.634 25.34 112.014 23.1 115.114 23.1C118.214 23.1 120.594 25.34 120.594 29C120.594 32.66 118.214 34.92 115.114 34.92C112.014 34.92 109.634 32.66 109.634 29ZM125.996 29.9C125.996 27.16 127.536 26.34 129.356 26.34H129.736V24.88C127.856 24.88 126.596 25.68 125.996 27.02V25.08H124.596V36H125.996V29.9ZM131.202 30.52C131.202 33.94 133.422 36.16 136.402 36.16C138.582 36.16 140.102 34.98 140.742 33.58V36H142.142V25.08H140.742V27.48C140.122 26.1 138.622 24.92 136.422 24.92C133.422 24.92 131.202 27.1 131.202 30.52ZM140.742 30.54C140.742 33.26 138.922 34.94 136.682 34.94C134.382 34.94 132.622 33.28 132.622 30.52C132.622 27.74 134.382 26.14 136.682 26.14C138.922 26.14 140.742 27.82 140.742 30.54ZM153.518 36H154.898V29.6C154.898 26.4 152.938 24.88 150.458 24.88C148.838 24.88 147.438 25.58 146.738 26.94V25.08H145.338V36H146.738V30.04C146.738 27.38 148.158 26.1 150.198 26.1C152.198 26.1 153.518 27.34 153.518 29.76V36ZM157.355 30.52C157.355 33.94 159.575 36.16 162.575 36.16C164.735 36.16 166.255 34.98 166.895 33.58V36.28C166.895 38.76 165.275 40.14 163.195 40.14C161.195 40.14 159.815 39.12 159.355 37.64H157.975C158.415 39.92 160.375 41.36 163.195 41.36C166.195 41.36 168.295 39.34 168.295 36.28V25.08H166.895V27.46C166.275 26.08 164.735 24.92 162.575 24.92C159.575 24.92 157.355 27.1 157.355 30.52ZM166.895 30.54C166.895 33.26 165.075 34.94 162.835 34.94C160.535 34.94 158.775 33.28 158.775 30.52C158.775 27.74 160.535 26.14 162.835 26.14C165.075 26.14 166.895 27.82 166.895 30.54ZM175.979 23.18H179.879V36H181.279V23.18H185.159V22.02H175.979V23.18ZM196.83 25.08H195.43V31.02C195.43 33.68 194.01 34.96 191.97 34.96C189.97 34.96 188.65 33.72 188.65 31.3V25.08H187.27V31.46C187.27 34.66 189.23 36.18 191.71 36.18C193.33 36.18 194.77 35.46 195.43 34.08V36H196.83V25.08ZM199.386 30.52C199.386 33.94 201.606 36.16 204.586 36.16C206.766 36.16 208.286 34.98 208.926 33.58V36H210.326V25.08H208.926V27.48C208.306 26.1 206.806 24.92 204.606 24.92C201.606 24.92 199.386 27.1 199.386 30.52ZM208.926 30.54C208.926 33.26 207.106 34.94 204.866 34.94C202.566 34.94 200.806 33.28 200.806 30.52C200.806 27.74 202.566 26.14 204.866 26.14C207.106 26.14 208.926 27.82 208.926 30.54Z" fill="white"/>
<g filter="url(#filter2_d_53_178)">
<path d="M245.515 56.4097C245.515 56.2072 245.492 56.0048 245.442 55.8069C245.428 55.7471 245.405 55.6827 245.363 55.6367C245.285 55.5585 245.166 55.5585 245.055 55.5585C244.673 55.5723 244.296 55.5861 243.914 55.5999C243.951 55.7379 243.868 55.8898 243.748 55.968C243.629 56.0508 243.482 56.0784 243.339 56.106C243.187 56.1336 243.035 56.1612 242.883 56.1888C242.704 56.221 242.515 56.2579 242.373 56.3775C242.23 56.4925 242.156 56.7134 242.262 56.8652C242.35 56.9849 242.511 57.0171 242.658 57.0355C243.486 57.1183 244.324 56.9619 245.143 56.81C245.253 56.7916 245.373 56.764 245.442 56.6766C245.506 56.6076 245.515 56.5063 245.515 56.4097Z" fill="#4D4D4D"/>
<path d="M250.94 56.1935C250.917 55.991 250.871 55.7932 250.798 55.6045C250.775 55.5447 250.747 55.4849 250.701 55.4481C250.618 55.379 250.494 55.3929 250.383 55.4067C250.006 55.4619 249.633 55.5217 249.256 55.5769C249.311 55.7103 249.242 55.8714 249.132 55.9634C249.021 56.0554 248.879 56.1014 248.741 56.1429C248.594 56.1889 248.446 56.2349 248.299 56.2809C248.124 56.3361 247.94 56.3913 247.816 56.5248C247.687 56.6536 247.641 56.8837 247.761 57.0217C247.857 57.1321 248.028 57.1459 248.175 57.1459C249.008 57.1321 249.822 56.8883 250.618 56.6398C250.724 56.6076 250.844 56.5662 250.899 56.4741C250.954 56.3913 250.949 56.2901 250.94 56.1935Z" fill="#4D4D4D"/>
<path d="M241.752 38.7179C241.682 38.81 241.678 38.948 241.678 39.0723C241.613 44.5983 242.718 50.037 243.817 55.4113C243.836 55.4941 243.854 55.5769 243.9 55.6367C243.965 55.715 244.066 55.7287 244.163 55.7425C244.609 55.7886 245.06 55.8392 245.506 55.8852C245.939 50.0554 246.086 44.198 245.957 38.3499C244.669 38.4281 243.38 38.5063 242.092 38.5845C241.972 38.5937 241.834 38.6075 241.752 38.7179Z" fill="#89796D"/>
<path d="M245.58 38.9571C245.52 39.0584 245.529 39.1918 245.538 39.316C245.971 44.8237 247.558 50.129 249.136 55.3698C249.159 55.448 249.187 55.5308 249.242 55.586C249.316 55.6597 249.417 55.6643 249.514 55.6643C249.965 55.6689 250.416 55.6689 250.867 55.6735C250.77 49.8299 250.393 43.9817 249.739 38.1749C248.465 38.382 247.19 38.5844 245.916 38.7915C245.787 38.8099 245.653 38.8421 245.58 38.9571Z" fill="#998675"/>
<path d="M241.158 12.9049C240.886 12.5276 240.712 12.0307 240.67 11.4279C240.601 10.3236 240.656 9.1779 241.112 8.16562C241.636 7.00151 242.966 5.842 244.347 6.14108C245.962 6.49077 245.86 8.57513 245.745 9.96011C245.658 11.0598 245.262 12.1779 244.448 12.9233C243.233 14.0414 241.867 13.8988 241.158 12.9049Z" fill="#CEBFB2"/>
<path d="M247.595 14.2025C247.949 14.4096 248.212 14.7363 248.451 15.0629C250.954 18.4909 251.865 22.8068 252.426 27.0124C252.992 31.2363 253.273 35.5017 253.264 39.767C248.699 40.1627 244.117 40.3882 239.538 40.4388C239.244 37.1397 238.949 33.836 238.655 30.5369C238.406 27.7348 238.443 25.1029 238.788 22.3099C239.133 19.5169 240.123 17.0921 241.775 14.4786C243.376 15.7117 245.847 13.181 247.595 14.2025Z" fill="#97A8B2"/>
<path d="M251.46 28.7793C249.758 29.152 248.064 29.2854 246.339 29.4971C243.84 29.8054 241.135 30.3115 238.604 29.8836C238.618 30.0998 238.636 30.3161 238.655 30.5324L238.664 30.6198C239.851 30.8775 241.241 30.767 242.368 30.7992C243.928 30.8452 245.492 30.8774 247.057 30.8314C249.008 30.7762 250.899 30.4403 252.781 30.0262C252.73 29.5201 252.675 29.0139 252.62 28.5078C252.229 28.6044 251.847 28.6965 251.46 28.7793Z" fill="#ABBCC4"/>
<path d="M246.192 32.221C244.36 32.2348 242.515 32.221 240.684 32.1151C240.04 32.0783 239.405 32.0645 238.784 31.9863L238.871 32.9434C241.397 33.5921 244.167 33.3253 246.721 33.0538C248.828 32.8283 250.903 32.52 252.969 32.1289C252.951 31.8805 252.928 31.632 252.905 31.3835C250.701 31.8483 248.492 32.2072 246.192 32.221Z" fill="#ABBCC4"/>
<path d="M246.394 34.4618C243.988 34.7011 241.402 34.9082 239 34.3882L239.074 35.1935C243.771 35.7456 248.488 35.5155 253.144 34.7793C253.121 34.356 253.094 33.9327 253.066 33.5094C250.862 33.9143 248.644 34.2364 246.394 34.4618Z" fill="#ABBCC4"/>
<path d="M239.193 36.5738L239.313 37.9174C242.11 38.3315 245.12 38.0646 247.89 37.8529C249.675 37.7149 251.474 37.5125 253.232 37.149C253.222 36.8131 253.213 36.4818 253.199 36.1459C248.566 36.8637 243.882 37.0799 239.193 36.5738Z" fill="#ABBCC4"/>
<path d="M247.531 39.2518C244.885 39.4174 242.106 39.6475 239.442 39.3162L239.543 40.4389C244.126 40.3883 248.704 40.1674 253.268 39.7671C253.268 39.3622 253.264 38.9573 253.259 38.5524C251.368 38.9297 249.431 39.1321 247.531 39.2518Z" fill="#ABBCC4"/>
<path d="M244.282 10.839C244.494 11.5292 244.563 12.2608 244.48 12.974C245.474 12.6381 245.952 11.6212 246.21 10.6825C246.44 9.85432 246.583 8.9893 246.436 8.14727C246.284 7.30524 245.81 6.48162 245.014 6.0307C243.647 5.25309 241.747 5.74541 240.367 4.98621C240.251 5.26688 240.302 5.59818 240.495 5.84204C240.086 5.84665 239.672 5.85124 239.262 5.85124C239.29 6.71628 240.233 7.30064 241.121 7.59972C242.207 7.96322 243.367 8.12886 244.521 8.08285C244.416 8.48776 244.314 8.88807 244.209 9.29298C244.738 9.10893 245.4 9.50463 245.423 10.02C245.451 10.5307 244.825 10.9816 244.282 10.839Z" fill="#534741"/>
<path d="M243.698 5.99843C244.452 6.77604 245.874 6.74384 246.592 5.92942C246.716 5.78678 246.827 5.62113 246.868 5.43248C246.919 5.20702 246.873 4.97235 246.79 4.75609C246.555 4.14413 246.012 3.6564 245.377 3.49536C244.742 3.33431 244.034 3.49996 243.537 3.92787C243.413 3.87726 243.256 3.91407 243.164 4.0153C243.344 4.3834 243.445 4.78831 243.454 5.19782C243.459 5.37727 243.445 5.56591 243.518 5.73616C243.555 5.83739 243.624 5.92021 243.698 5.99843Z" fill="#E8DBD1"/>
<path d="M244.65 2.25306C244.517 2.32208 244.383 2.50153 244.503 2.58896C244.098 2.47853 243.633 2.61197 243.353 2.92025C243.316 2.95706 243.284 3.00767 243.293 3.05828C243.302 3.10889 243.385 3.14111 243.408 3.0951C243.256 3.02148 243.049 3.0675 242.948 3.20093C242.87 3.54603 242.925 3.91872 243.1 4.227C243.132 4.28682 243.178 4.34664 243.242 4.36044C243.293 4.36964 243.348 4.35123 243.399 4.32823C243.597 4.24541 243.794 4.15799 243.992 4.07517C243.997 4.32363 244.199 4.55369 244.448 4.5859C244.696 4.61811 244.954 4.45246 245.023 4.2132C245.244 4.46627 245.741 4.36043 245.837 4.03835C245.617 4.17178 245.81 4.56289 246.072 4.57209C246.33 4.5813 246.541 4.36965 246.702 4.16259C246.661 4.06596 246.62 3.97394 246.578 3.87732C246.472 3.89572 246.449 4.07977 246.551 4.12118C246.666 4.21781 246.863 4.12577 246.919 3.98313C246.979 3.8405 246.942 3.67946 246.905 3.53222C246.836 3.24234 246.643 2.87424 246.353 2.95707C246.541 2.94786 246.652 2.71319 246.592 2.53375C246.532 2.3543 246.353 2.24386 246.169 2.19785C245.998 2.15644 245.819 2.16104 245.649 2.21165C245.667 2.13803 245.649 2.05521 245.603 2C245.271 2.0184 244.945 2.10122 244.65 2.25306Z" fill="#EFAB50"/>
<path d="M241.604 14.9111C242.63 14.9894 244.015 15.5737 245.037 15.4311C246.054 15.2885 247.144 14.9802 247.756 14.2164C248.359 13.4617 248.557 12.4633 248.52 11.4602C248.483 10.4571 248.377 9.44488 247.945 8.52003C247.696 7.98168 247.406 7.43872 246.933 7.04302C246.459 6.64731 245.768 6.41725 245.156 6.6105C244.475 6.82216 244.084 7.49394 243.997 8.14272C243.909 8.7915 244.061 9.44487 244.117 10.0982C244.176 10.7516 244.126 11.451 243.698 11.9802C243.09 12.7302 242.152 13.2225 241.31 13.7562C241.471 14.4556 241.204 14.2946 241.604 14.9111Z" fill="#CAE0DF"/>
<path d="M239.658 11.1656C239.63 11.2209 239.571 11.2485 239.515 11.2807C239.34 11.3911 239.225 11.5889 239.221 11.7914C239.534 11.865 239.828 11.6396 240.095 11.4601C241.006 10.8389 242.115 10.5951 243.109 10.112C243.279 10.0291 243.454 9.9325 243.541 9.76225C243.629 9.59661 243.578 9.34354 243.403 9.28833C243.293 9.25152 243.178 9.29294 243.067 9.33895C242.207 9.68864 241.365 10.0797 240.546 10.5123C240.275 10.6549 239.957 10.8021 239.681 10.6733C239.511 10.7469 239.736 11.0092 239.658 11.1656Z" fill="#E8DBD1"/>
<path d="M243.541 10.043C243.629 10.0292 243.707 9.97398 243.776 9.91876C244.186 9.58748 244.503 9.15496 244.696 8.66723C244.752 8.52919 244.798 8.38195 244.77 8.23931C244.747 8.09207 244.632 7.95404 244.489 7.94024C244.37 7.93103 244.264 8.00466 244.167 8.07368C243.859 8.29454 243.546 8.51079 243.238 8.73165C243.187 8.76846 243.132 8.80527 243.1 8.86048C243.021 8.98932 243.077 9.15036 243.141 9.2884C243.261 9.54607 243.394 9.79914 243.541 10.043Z" fill="#DFEFEF"/>
<path d="M241.715 14.2301C241.701 14.0461 241.655 13.816 241.471 13.7746C241.342 13.747 241.213 13.839 241.126 13.9403C240.762 14.359 240.698 14.9525 240.647 15.5047C240.638 15.6289 240.712 16.0154 240.702 16.1397C240.827 16.1397 240.955 15.8682 241.029 15.7716C241.19 15.5645 241.199 15.2056 241.434 15.0906C241.521 15.0492 241.618 15.04 241.692 14.8651C241.733 14.7639 241.742 14.6489 241.733 14.5384C241.728 14.4372 241.724 14.336 241.715 14.2301Z" fill="#E8DBD1"/>
<path d="M246.486 9.91411C246.532 9.98313 246.629 9.99693 246.712 10.0061C247.011 10.0337 247.383 10.0199 247.517 9.75307C247.558 9.67025 247.567 9.57821 247.572 9.48619C247.641 8.33128 246.859 7.12116 245.833 6.59202C246.095 6.45858 246.486 6.61962 246.73 6.78067C246.979 6.94171 247.218 7.13036 247.374 7.37882C248.336 8.87423 248.736 10.7239 248.479 12.4816C248.368 13.2362 248.12 14.0092 247.558 14.5246C247.264 14.7914 246.9 14.9709 246.532 15.1181C245.658 15.4586 244.632 15.6887 243.739 15.3942C243.39 15.2792 243.058 15.2331 242.709 15.1181C242.359 15.0077 242.101 15.0169 241.678 14.9295C241.701 14.704 241.724 14.4739 241.669 14.2531C241.618 14.0322 241.475 13.8206 241.259 13.7469C241.765 13.1626 242.492 12.8267 243.113 12.3666C243.735 11.9064 244.204 11.2025 244.13 10.4295C244.42 10.4479 244.802 10.4893 245.092 10.5077C245.17 10.5123 245.253 10.5169 245.322 10.4801C245.428 10.4294 245.469 10.3052 245.497 10.1902C245.584 9.85889 245.621 9.51381 245.635 9.16871C245.649 8.80982 245.63 8.44632 245.492 8.11503C245.304 7.6595 244.885 7.3052 244.406 7.19017C244.471 6.85888 244.853 6.65642 245.184 6.71164C245.515 6.76685 245.782 7.02914 245.939 7.32822C246.09 7.6273 246.146 7.96778 246.201 8.29907C246.284 8.79601 246.362 9.29754 246.445 9.79448C246.459 9.84509 246.468 9.88191 246.486 9.91411Z" fill="#68889B"/>
<path d="M244.581 10.8757C244.567 10.8711 244.549 10.8711 244.535 10.8665C244.521 10.8619 244.508 10.8665 244.498 10.8711C244.475 10.8711 244.452 10.8665 244.429 10.8665C244.356 10.8711 244.342 10.9678 244.411 10.9908C244.452 11.0046 244.494 11.0138 244.54 11.023C244.636 11.0414 244.678 10.8941 244.581 10.8757Z" fill="#736357"/>
<path d="M245.244 10.8482C245.193 10.8528 245.147 10.8528 245.097 10.8574C245.009 10.862 245.009 10.9909 245.097 10.9955C245.147 11.0001 245.193 11.0001 245.244 11.0047C245.34 11.0093 245.34 10.8436 245.244 10.8482Z" fill="#736357"/>
<path d="M245.879 10.8114C245.828 10.816 245.782 10.816 245.732 10.816C245.663 10.8114 245.653 10.9172 245.718 10.931C245.773 10.9448 245.824 10.954 245.879 10.9494C245.966 10.9402 245.971 10.8068 245.879 10.8114Z" fill="#736357"/>
<path d="M246.748 10.747C246.693 10.7608 246.633 10.7746 246.578 10.7838C246.495 10.8022 246.532 10.9172 246.61 10.9034C246.67 10.8942 246.725 10.885 246.785 10.8758C246.868 10.862 246.831 10.7286 246.748 10.747Z" fill="#736357"/>
<path d="M247.25 10.5721C247.213 10.5905 247.176 10.6135 247.14 10.6365C247.08 10.6779 247.117 10.7792 247.19 10.7562C247.232 10.7424 247.273 10.7285 247.31 10.7101C247.411 10.6687 247.347 10.5215 247.25 10.5721Z" fill="#736357"/>
<path d="M247.83 10.3283C247.793 10.3559 247.756 10.3881 247.724 10.4203C247.664 10.4801 247.742 10.586 247.816 10.5354C247.853 10.5078 247.89 10.4802 247.926 10.4479C247.986 10.3881 247.899 10.2731 247.83 10.3283Z" fill="#736357"/>
<path d="M248.124 10.0981C248.124 10.135 248.12 10.1764 248.115 10.2132C248.11 10.2868 248.225 10.3006 248.244 10.2316C248.253 10.1948 248.258 10.158 248.267 10.1166C248.294 10.0153 248.133 9.99231 248.124 10.0981Z" fill="#736357"/>
<path d="M243.04 14.2301C243.086 14.2577 243.141 14.2439 243.192 14.2301C243.546 14.1289 243.905 14.0046 244.213 13.8068C244.526 13.6043 244.793 13.3191 244.908 12.9648C244.913 12.9464 244.922 12.9233 244.917 12.9003C244.913 12.8773 244.89 12.8589 244.867 12.8405C244.526 12.5783 244.089 12.3896 243.919 11.9939C243.615 12.3252 243.233 12.5737 242.828 12.7715C242.658 12.8543 242.46 12.951 242.423 13.1396C242.419 13.158 242.419 13.181 242.423 13.1994C242.432 13.227 242.455 13.25 242.478 13.273C242.713 13.5031 242.851 13.816 242.971 14.1243C242.985 14.1657 243.003 14.2117 243.04 14.2301Z" fill="#84A1AF"/>
<path d="M244.604 19.0706C244.457 18.4448 243.707 17.9341 243.159 18.27C242.851 18.4633 242.718 18.8406 242.612 19.1903C242.331 20.1013 242.051 21.0077 241.77 21.9142C241.577 22.5445 241.379 23.1841 241.351 23.8467C239.46 24.3805 237.523 24.7531 235.567 24.974C235.176 24.7808 234.689 24.7946 234.311 25.0154C234.39 25.0982 234.33 25.2455 234.228 25.3007C234.127 25.3559 234.008 25.3513 233.897 25.3559C233.69 25.3651 233.469 25.4157 233.317 25.5584C233.166 25.701 233.11 25.9587 233.239 26.1243C233.336 26.2485 233.506 26.29 233.663 26.3176C234.164 26.4004 234.675 26.405 235.176 26.3314C235.374 26.3038 235.586 26.2439 235.756 26.1381C237.675 26.1289 239.589 26.1197 241.508 26.1105C241.659 26.1105 241.821 26.1059 241.949 26.0323C242.115 25.9357 242.202 25.747 242.276 25.5722C242.929 24.0262 243.587 22.4801 244.241 20.9341C244.498 20.3406 244.752 19.6964 244.604 19.0706Z" fill="#CEBFB2"/>
<path d="M227.147 17.4233C227.175 17.2531 227.304 17.1196 227.432 17C227.497 16.9402 227.566 16.8758 227.635 16.8206C227.998 16.5353 228.472 16.3926 228.937 16.4341C229.07 16.4433 229.208 16.4755 229.305 16.5629C229.383 16.6365 229.429 16.7377 229.448 16.8436C229.452 16.8666 229.457 16.8942 229.448 16.9172C229.429 17.0046 229.324 17.0368 229.236 17.0506C229.144 17.0644 229.047 17.0828 228.974 17.138C228.9 17.1933 228.854 17.3037 228.9 17.3819C228.923 17.4187 228.96 17.4463 228.969 17.4877C228.983 17.5568 228.914 17.6166 228.845 17.6396C228.592 17.7224 228.316 17.589 228.058 17.6442C227.98 17.6626 227.902 17.6948 227.824 17.7178C227.745 17.7362 227.658 17.7454 227.584 17.704C227.511 17.6948 227.432 17.681 227.359 17.6626C227.285 17.6442 227.202 17.6166 227.166 17.5521C227.143 17.5153 227.138 17.4647 227.147 17.4233Z" fill="#EADDD0"/>
<path d="M231.33 14.4693C230.727 14.3819 230.115 14.2899 229.503 14.3175C229.383 14.3221 229.255 14.3359 229.167 14.4141C229.084 14.4877 229.057 14.6028 229.029 14.7132C228.403 17.4003 227.782 20.0875 227.156 22.7746C227.147 22.8206 227.133 22.8666 227.143 22.9126C227.161 23.0185 227.267 23.0783 227.359 23.1243C228.923 23.8835 230.727 23.9157 232.462 23.9295C232.613 23.9295 232.774 23.9295 232.894 23.8421C233.028 23.75 233.078 23.5844 233.124 23.428C233.833 20.8927 233.998 18.2332 234.592 15.6657C234.633 15.4862 234.679 15.293 234.62 15.1135C234.491 14.727 233.589 14.8006 233.262 14.7546C232.618 14.658 231.974 14.566 231.33 14.4693Z" fill="#545454"/>
<path d="M231.297 14.8145C230.741 14.7317 230.175 14.6488 229.613 14.6626C229.503 14.6673 229.383 14.6765 229.305 14.7455C229.232 14.8099 229.204 14.9065 229.181 15.0032C228.633 17.3314 228.086 19.6596 227.538 21.9924C227.529 22.0293 227.52 22.0707 227.529 22.1121C227.547 22.2041 227.644 22.2593 227.732 22.3007C229.181 22.9771 230.847 23.0231 232.448 23.0553C232.586 23.0599 232.733 23.0599 232.848 22.9863C232.968 22.9081 233.018 22.7609 233.055 22.6274C233.681 20.428 233.81 18.1228 234.33 15.8958C234.366 15.7394 234.403 15.5737 234.348 15.4173C234.224 15.0768 233.396 15.1366 233.092 15.0906C232.489 14.9939 231.891 14.9019 231.297 14.8145Z" fill="#F7F7F7"/>
<path d="M224.005 20.971C224.469 20.3958 224.787 19.7148 225.261 19.1489C225.9 18.3851 226.581 17.8375 227.005 16.9357C227.202 17.244 227.865 17.5522 228.063 17.8605C227.294 18.905 226.526 19.7838 226.204 21.2194C226.052 21.882 225.334 22.8713 224.989 23.4602C224.805 23.7731 224.557 24.0446 224.294 24.2977C223.728 24.8452 223.057 25.3237 222.284 25.4618C221.11 25.6688 219.965 24.8958 219.988 23.6397C220.011 22.5124 221.538 22.6182 222.311 22.2685C222.969 21.9694 223.558 21.5277 224.005 20.971Z" fill="#E0C74E"/>
<path d="M217.558 55.1812C217.07 55.2226 216.564 55.0984 216.155 54.8269C216.863 53.2257 217.572 51.6244 218.281 50.0232C218.506 49.517 218.731 49.0063 218.865 48.4726C219.031 47.8146 219.054 47.1244 219.077 46.448C219.164 43.8115 219.251 41.175 219.339 38.5339C219.348 38.313 219.357 38.083 219.449 37.8851C219.721 37.3099 220.503 37.2593 221.138 37.2869C221.276 37.2916 221.428 37.3054 221.529 37.402C221.644 37.5124 221.658 37.6873 221.658 37.8483C221.695 39.9281 222.054 38.0462 222.09 40.1305C222.104 40.8621 221.796 45.5646 221.649 46.2778C221.386 47.5431 220.991 48.8637 220.305 49.9634C219.261 51.6566 218.598 53.1842 217.558 55.1812Z" fill="#4D4D4D"/>
<path d="M223.397 38.2026C224.276 38.0922 225.155 37.9818 226.034 37.8713C226.08 37.7517 225.859 37.8713 225.873 38.0002C226.324 41.9803 226.365 46.0063 225.992 49.9956C225.831 51.7165 225.592 53.442 225.758 55.1628C225.394 55.1996 225.035 55.2318 224.672 55.2686C224.018 49.9082 223.36 44.5432 222.707 39.1827C222.675 38.9112 222.652 38.5983 222.845 38.4051C222.983 38.2625 223.199 38.2302 223.397 38.2026Z" fill="#4D4D4D"/>
<path d="M224.828 20.3037C224.529 19.4571 224.23 18.6151 223.931 17.7684C223.139 18.2746 222.04 18.247 221.276 17.6948C221.962 25.3007 221.768 32.9571 221.575 40.5952C223.084 39.9786 224.736 39.7072 226.365 39.813C226.406 36.7992 226.448 33.79 226.485 30.7762C226.512 28.8022 226.535 26.8145 226.176 24.8682C225.891 23.3083 225.357 21.8037 224.828 20.3037Z" fill="#E0C74E"/>
<path d="M219.615 16.701C219.445 16.6136 219.265 16.5077 219.077 16.5354C218.782 16.5814 218.639 16.908 218.552 17.1933C216.155 24.974 216.983 33.3299 217.83 41.4281C219.638 41.1152 221.497 41.0922 223.314 41.3683C223.65 40.356 223.728 39.2839 223.784 38.2164C224.156 31.1213 223.558 23.971 222.008 17.0369C221.207 17.2025 220.342 17.0829 219.615 16.701Z" fill="#EFEFEF"/>
<path d="M225.123 18.6933C224.773 18.0584 224.396 17.4418 224.129 16.77C223.88 17.0645 223.489 17.2347 223.103 17.2255C225.242 22.517 225.316 28.3836 225.353 34.0937C225.371 36.4311 225.385 38.7732 225.403 41.1106C226.554 40.8391 227.75 40.7701 228.923 40.9127C228.201 38.9618 227.649 36.9189 227.626 34.8345C227.612 33.56 227.801 32.29 227.879 31.0155C228.146 26.7593 227.175 22.4341 225.123 18.6933Z" fill="#EFEFEF"/>
<path d="M221.488 16.2179C221.175 15.9832 220.899 15.6289 220.701 15.1642C220.337 14.2992 220.057 13.3697 220.121 12.4495C220.195 11.3866 220.889 10.1305 222.031 10.02C223.37 9.89119 223.876 11.5798 224.179 12.7164C224.423 13.6182 224.432 14.6075 224.018 15.4081C223.402 16.5998 222.311 16.8299 221.488 16.2179Z" fill="#E8DBD1"/>
<path d="M218.212 16.7516C218.156 16.3283 218.437 15.9142 218.497 15.4955C218.626 14.6442 218.35 13.8896 218.037 13.0936C217.669 12.1642 217.862 11.4924 218.363 10.7286C219.182 9.49083 220.724 8.76843 222.196 9.05831C222.233 9.06751 222.274 9.07212 222.316 9.08132C222.863 9.40801 223.36 9.83131 223.65 10.4525C223.83 10.8344 223.949 11.2991 223.945 11.7362C223.935 11.796 223.926 11.8513 223.917 11.9111C223.811 11.4694 223.646 11.0092 223.402 10.9218C223.181 10.8436 222.224 11.3681 221.911 11.4003C221.386 11.4556 220.406 11.2669 220.241 11.9387C220.158 12.2792 220.388 12.6151 220.567 12.8957C220.935 13.4709 221.069 13.5123 221.138 14.1749C221.276 15.5138 222.233 16.4939 221.469 17.6994C220.908 18.5829 219.905 18.8359 219.008 18.0307C218.713 17.7639 218.262 17.1703 218.212 16.7516Z" fill="#EFAB50"/>
<path d="M225.592 56.0002C225.753 56.1106 225.56 56.2302 225.463 56.2486C225.288 56.2854 225.1 56.29 224.92 56.267C224.874 56.2624 224.824 56.2532 224.782 56.2256C224.75 56.2072 224.727 56.175 224.704 56.1474C224.639 56.0692 224.488 55.945 224.455 55.8483C224.428 55.7701 224.469 55.6827 224.501 55.6045C224.566 55.4388 224.69 55.2594 224.667 55.0707C225.058 55.0753 225.417 54.9051 225.748 54.9787C225.79 55.1121 225.9 55.2134 225.863 55.3192C225.886 55.2456 226.843 55.3882 226.959 55.402C227.138 55.4204 227.322 55.4296 227.506 55.4296C227.649 55.4296 227.911 55.3376 228.003 55.471C228.035 55.517 228.049 55.5769 228.063 55.6321C228.072 55.6735 228.077 55.7195 228.067 55.7609C228.049 55.8345 227.989 55.8943 227.92 55.9266C227.179 56.2809 226.37 55.9128 225.592 56.0002Z" fill="#826F5F"/>
<path d="M216.771 55.9864C216.882 56.1659 216.638 56.2027 216.537 56.1797C216.348 56.1383 216.159 56.0646 215.994 55.9634C215.948 55.9358 215.906 55.9036 215.879 55.8622C215.856 55.83 215.846 55.7886 215.833 55.7471C215.8 55.6413 215.708 55.4527 215.718 55.3422C215.727 55.2502 215.805 55.1858 215.87 55.1214C216.008 54.9833 216.251 54.7349 216.307 54.5416C216.693 54.7165 217.268 54.9097 217.563 55.126C217.425 55.2502 217.42 55.3422 217.337 55.4389C217.393 55.3791 218.276 55.9358 218.382 55.9956C218.552 56.0922 218.727 56.1843 218.911 56.2625C219.054 56.3223 219.353 56.3453 219.385 56.5202C219.399 56.58 219.385 56.6444 219.371 56.7042C219.362 56.7502 219.343 56.7962 219.316 56.8331C219.265 56.8975 219.182 56.9297 219.1 56.9297C218.216 56.9573 217.577 56.2395 216.771 55.9864Z" fill="#826F5F"/>
<path d="M222.339 31.6228C221.207 32.0231 219.96 32.0921 218.791 31.8206C218.828 32.7179 218.814 33.5323 218.851 34.4295C218.879 35.0967 218.92 35.7961 219.284 36.3528C219.587 36.8176 220.112 37.1351 220.664 37.1857C221.216 37.2409 221.791 37.0292 222.178 36.6289C222.73 36.063 222.863 35.2117 222.882 34.4249C222.905 33.4679 222.804 32.5062 222.578 31.5768C222.481 31.5676 222.426 31.5952 222.339 31.6228Z" fill="#E6E6E6"/>
<path d="M227.745 31.5492C227.193 31.9495 226.59 32.0185 226.02 31.747C226.038 32.6443 226.029 33.4587 226.047 34.3559C226.061 35.0231 226.08 35.7225 226.259 36.2792C226.406 36.744 226.659 37.0615 226.931 37.1121C227.198 37.1673 227.478 36.9556 227.667 36.5553C227.934 35.9894 227.998 35.1381 228.008 34.3513C228.021 33.3943 227.971 32.4326 227.86 31.5032C227.814 31.4894 227.787 31.517 227.745 31.5492Z" fill="#E6E6E6"/>
<path d="M230.267 23.428C230.253 23.451 230.23 23.4694 230.212 23.4832C230.161 23.5154 230.106 23.5339 230.046 23.5293C229.986 23.5247 229.931 23.5016 229.894 23.4602C229.779 23.3268 229.825 23.0967 230.023 23.0829C230.17 23.0737 230.354 23.2854 230.267 23.428Z" fill="#F7F7F7"/>
<path d="M229.337 20.3543C229.567 20.3819 229.83 20.1933 229.784 19.9678C229.756 19.839 229.646 19.747 229.544 19.6687C229.273 19.4617 229.001 19.2546 228.735 19.0476C228.546 18.9049 228.357 18.7577 228.136 18.6657C228.192 17.9617 228.311 17.2669 228.477 16.5813C228.592 16.4755 228.647 16.3098 228.62 16.1534C228.583 16.1672 228.541 16.1304 228.532 16.089C228.528 16.0476 228.541 16.0108 228.555 15.9694C228.578 15.9003 228.587 15.8175 228.56 15.7485C228.532 15.6795 228.449 15.6289 228.38 15.6519C228.325 15.6703 228.293 15.7209 228.265 15.7715C228.178 15.9279 228.109 16.1028 228.072 16.2776C228.058 16.3466 228.049 16.4249 228.063 16.4939C227.828 17.1381 227.589 17.7868 227.354 18.431C227.336 18.4816 227.317 18.5368 227.327 18.5921C227.336 18.6611 227.391 18.7117 227.442 18.7577C227.879 19.1718 228.316 19.5859 228.758 20C228.923 20.1611 229.107 20.3267 229.337 20.3543Z" fill="#CEBFB2"/>
<path d="M230.69 15.546C230.709 15.6242 230.732 15.7025 230.759 15.7807C230.81 15.9187 230.883 16.0429 230.952 16.1718C231.031 16.3098 231.113 16.4525 231.219 16.5721C231.242 16.5997 231.27 16.6365 231.251 16.6687C231.238 16.6917 231.205 16.6963 231.178 16.6917C231.049 16.6779 230.934 16.5997 230.847 16.5031C230.764 16.4064 230.704 16.2868 230.649 16.1672C230.566 15.9969 230.483 15.8267 230.4 15.6564C230.322 15.4954 230.244 15.3206 230.271 15.1411C230.285 15.0721 230.317 15.0031 230.377 14.9709C230.501 14.9064 230.552 15.0261 230.575 15.1227C230.616 15.2653 230.653 15.408 230.69 15.546Z" fill="#E8DBD1"/>
<path d="M231.251 16.4479C231.215 16.3927 231.164 16.3374 231.1 16.319C231.031 16.3006 230.957 16.3283 230.902 16.3697C230.847 16.4111 230.805 16.4709 230.764 16.5307C230.75 16.5491 230.741 16.5675 230.736 16.5905C230.736 16.6089 230.741 16.6227 230.75 16.6365C230.801 16.7378 230.879 16.8298 230.985 16.862C231.09 16.8988 231.224 16.8666 231.279 16.77C231.297 16.7424 231.357 16.6503 231.357 16.6181C231.357 16.5813 231.274 16.4847 231.251 16.4479Z" fill="#CAE0DF"/>
<path d="M233.538 15.8727C233.552 15.8543 233.566 15.8313 233.589 15.8221C233.63 15.8083 233.676 15.8405 233.686 15.8819C233.699 15.9233 233.69 15.9647 233.676 16.0061C233.603 16.2638 233.451 16.4939 233.244 16.6687C233.083 16.8022 232.894 16.8988 232.696 16.9816C232.567 17.0368 232.434 17.0828 232.305 17.1288C232.245 17.1518 232.186 17.1703 232.126 17.1703C231.909 17.1703 231.919 16.9448 232.103 16.8988C232.296 16.8482 232.48 16.7883 232.655 16.6917C233.014 16.4893 233.313 16.204 233.538 15.8727Z" fill="#E8DBD1"/>
<path d="M232.457 17.1058C232.457 17.1426 232.448 17.184 232.42 17.207C232.393 17.23 232.351 17.23 232.319 17.2254C232.195 17.2162 231.909 17.2576 231.854 17.1242C231.817 17.0322 231.868 16.9033 231.942 16.8481C232.02 16.7929 232.181 16.7561 232.278 16.7423C232.471 16.7193 232.462 16.954 232.457 17.1058Z" fill="#CAE0DF"/>
<path d="M231.817 16.8067C231.914 16.8389 232.015 16.8849 232.052 16.9769C232.07 17.0184 232.07 17.0644 232.07 17.1104C232.084 17.5153 232.093 17.9202 232.107 18.3205C232.107 18.3849 232.107 18.454 232.061 18.5C232.015 18.546 231.942 18.5414 231.877 18.5368C231.693 18.5184 231.514 18.477 231.339 18.4125C231.274 18.3895 231.205 18.3619 231.155 18.3159C231.021 18.1963 231.012 17.9938 231.035 17.8144C231.072 17.5383 231.164 17.2714 231.307 17.0276C231.454 16.7837 231.518 16.7147 231.817 16.8067Z" fill="#CAE0DF"/>
<path d="M231.863 17.0185C231.873 16.9356 231.84 16.8344 231.909 16.793C231.955 16.7654 232.015 16.793 232.047 16.839C232.08 16.885 232.08 16.9402 232.084 16.9909C232.107 17.3083 232.103 17.635 232.158 17.9479C232.176 18.0537 232.204 18.155 232.199 18.2608C232.195 18.3666 232.153 18.4771 232.066 18.5369C231.951 18.6151 231.794 18.5829 231.661 18.5461C231.518 18.5093 231.371 18.4678 231.228 18.431C231.136 18.408 231.031 18.3712 230.994 18.2838C230.966 18.2286 230.975 18.1596 230.994 18.0997C231.04 17.9479 231.132 17.8145 231.164 17.6626C231.182 17.5752 231.173 17.4878 231.187 17.3958C231.196 17.3083 231.228 17.2163 231.297 17.1611C231.44 17.0461 231.831 17.3498 231.863 17.0185Z" fill="#68889B"/>
<path d="M228.822 20.0461C229.084 19.655 229.397 19.2777 229.816 19.0338C230.235 18.7853 230.787 18.6887 231.261 18.8728C231.426 18.9372 231.578 19.0384 231.725 19.135C231.9 19.2547 232.08 19.3789 232.186 19.5491C232.351 19.8114 232.333 20.1289 232.328 20.4234C232.319 21.1642 232.425 21.928 232.227 22.6412C232.186 22.7976 232.121 22.9587 231.983 23.0553C231.822 23.1749 231.592 23.1749 231.38 23.1657C230.515 23.1243 229.659 22.9449 228.813 22.7654C228.546 22.7102 228.072 22.6734 227.856 22.4985C227.658 22.3375 227.87 21.9786 227.934 21.79C228.155 21.178 228.454 20.589 228.822 20.0461Z" fill="#97A8B2"/>
<path d="M231.969 18.1825C232.08 18.2377 232.149 18.3573 232.19 18.477C232.245 18.6334 232.273 18.799 232.268 18.9647C232.264 19.1119 232.232 19.273 232.112 19.3558C232.052 19.4018 231.974 19.4202 231.9 19.4248C231.799 19.434 231.693 19.4202 231.601 19.3742C231.44 19.296 231.334 19.1349 231.215 19.0015C231.095 18.8681 230.92 18.7484 230.745 18.7944C230.557 18.8451 230.46 19.0613 230.294 19.1671C230.166 19.25 229.995 19.2546 229.862 19.1809C229.728 19.1073 229.641 18.9647 229.636 18.8129C229.632 18.6518 229.719 18.5 229.843 18.3987C229.968 18.2975 230.12 18.2423 230.276 18.2055C230.603 18.1319 230.92 18.1595 231.242 18.2377C231.495 18.3113 231.721 18.0583 231.969 18.1825Z" fill="#68889B"/>
<path d="M230.455 16.8022C230.212 16.9126 230.097 17.2071 230.023 17.474C229.977 17.635 229.935 17.8007 229.954 17.9663C229.982 18.2746 230.207 18.5277 230.46 18.6841C230.552 18.7439 230.649 18.7899 230.755 18.8221C231.049 18.9096 231.394 18.8267 231.624 18.6059C231.854 18.385 232.011 17.7639 231.932 17.451C231.859 17.1565 231.643 16.9264 231.371 16.8068C231.136 16.7056 230.695 16.6918 230.455 16.8022Z" fill="#CEBFB2"/>
<path d="M231.859 17.184C231.413 17.3129 230.911 17.2945 230.46 17.1334C230.189 17.0368 229.917 16.8712 229.802 16.6273C229.908 16.6411 230.009 16.6549 230.115 16.6825C230.097 16.5813 230.074 16.4847 230.055 16.3834C230.147 16.4432 230.253 16.4846 230.363 16.5077C230.497 16.5353 230.639 16.5261 230.778 16.5215C231.035 16.5123 231.302 16.5077 231.551 16.5813C231.712 16.6319 231.863 16.7193 231.965 16.8435C232.107 17.0184 232.084 17.1196 231.859 17.184Z" fill="#534741"/>
<path d="M231.794 17.405C231.863 17.5936 231.822 17.8007 231.781 17.9985C231.808 17.9893 231.836 17.9847 231.863 17.9755C231.813 18.0998 231.762 18.2286 231.716 18.3528C231.707 18.3804 231.702 18.4172 231.73 18.4264C231.748 18.431 231.762 18.4172 231.776 18.3988C231.868 18.2838 231.942 18.155 232.011 18.0215C232.08 17.8835 232.149 17.7409 232.167 17.5844C232.19 17.4326 232.158 17.2623 232.061 17.1473C231.988 17.0599 231.822 16.977 231.725 17.0783C231.62 17.1795 231.753 17.2991 231.794 17.405Z" fill="#534741"/>
<path d="M231.624 15.6887C231.491 15.7301 231.412 15.8773 231.353 16.0108C231.32 16.0936 231.288 16.1764 231.284 16.2638C231.279 16.4295 231.38 16.5721 231.5 16.6734C231.546 16.7102 231.592 16.7424 231.647 16.7654C231.799 16.8298 231.983 16.8114 232.116 16.7102C232.25 16.6089 232.374 16.296 232.351 16.1258C232.333 15.9694 232.236 15.8313 232.098 15.7485C231.988 15.6795 231.758 15.6473 231.624 15.6887Z" fill="#E8DBD1"/>
<path d="M231.362 15.7577C231.325 15.7807 231.284 15.8083 231.27 15.8497C231.256 15.8912 231.288 15.951 231.334 15.9418C231.334 15.9924 231.413 16.0062 231.454 15.9832C231.5 15.9556 231.532 15.9096 231.583 15.8958C231.652 15.9648 231.781 15.951 231.831 15.8682C231.813 15.9142 231.85 15.9694 231.9 15.9786C231.951 15.9878 232.001 15.9556 232.034 15.9188C231.988 15.9694 232.043 16.0706 232.112 16.0568C232.098 16.089 232.089 16.1304 232.098 16.1672C232.112 16.204 232.149 16.2316 232.186 16.2178C232.14 16.2869 232.213 16.3973 232.296 16.3881C232.264 16.4203 232.31 16.4755 232.351 16.4663C232.393 16.4617 232.42 16.4203 232.448 16.3835C232.489 16.3237 232.531 16.2593 232.572 16.1994C232.581 16.1856 232.595 16.1672 232.595 16.1488C232.595 16.1074 232.549 16.0798 232.531 16.043C232.503 15.9786 232.567 15.8958 232.531 15.8313C232.508 15.7945 232.452 15.7807 232.429 15.7439C232.416 15.7163 232.42 15.6841 232.416 15.6565C232.402 15.5921 232.337 15.5415 232.268 15.5507C232.25 15.5553 232.236 15.5599 232.218 15.5553C232.19 15.5461 232.186 15.5047 232.176 15.477C232.153 15.4034 232.061 15.362 231.988 15.3896C231.955 15.4034 231.928 15.4264 231.896 15.4264C231.854 15.4264 231.822 15.3988 231.785 15.385C231.707 15.3528 231.606 15.3942 231.578 15.4724C231.523 15.362 231.376 15.5231 231.339 15.5737C231.316 15.6059 231.279 15.6289 231.279 15.6749C231.284 15.6887 231.32 15.7853 231.362 15.7577Z" fill="#EFAB50"/>
<path d="M231.514 19.0568C231.546 18.9003 231.592 18.7301 231.725 18.6427C231.762 18.6196 231.799 18.6058 231.84 18.6058C231.914 18.6104 231.978 18.6703 232.001 18.7393C232.024 18.8083 232.02 18.8865 232.006 18.9601C231.983 19.066 231.942 19.1672 231.905 19.2684C231.781 19.5767 231.661 19.885 231.537 20.1933C231.532 20.2071 231.523 20.2255 231.514 20.2347C231.459 20.2807 231.316 20.2025 231.293 20.1473C231.261 20.0782 231.325 19.931 231.339 19.862C231.394 19.5951 231.454 19.3282 231.514 19.0568Z" fill="#E8DBD1"/>
<path d="M229.807 18.7577C229.811 18.7255 229.82 18.6887 229.839 18.6657C229.866 18.6334 229.908 18.638 229.94 18.638C230.028 18.6426 230.129 18.6611 230.166 18.7531C230.179 18.7945 230.179 18.8451 230.175 18.8911C230.152 19.296 230.092 19.7009 229.995 20.1012C229.968 20.2071 229.788 20.1749 229.742 20.1104C229.687 20.0322 229.71 19.8574 229.71 19.7607C229.715 19.4249 229.747 19.089 229.807 18.7577Z" fill="#E8DBD1"/>
<path d="M231.44 19.9908C231.491 19.9954 231.541 20.0138 231.569 20.0599C231.587 20.0921 231.587 20.1335 231.587 20.1749C231.587 20.2439 231.592 20.3129 231.62 20.3773C231.643 20.4372 231.689 20.4878 231.721 20.543C231.758 20.5982 231.785 20.6626 231.776 20.727C231.771 20.75 231.767 20.7685 231.753 20.7869C231.739 20.8053 231.721 20.8145 231.698 20.8237C231.532 20.8927 231.32 20.8237 231.238 20.6672C231.196 20.5936 231.182 20.5108 231.182 20.4234C231.178 20.3037 231.196 20.1795 231.233 20.0645C231.27 19.9494 231.334 19.977 231.44 19.9908Z" fill="#998675"/>
<path d="M229.825 19.8206C229.802 19.816 229.774 19.8114 229.747 19.816C229.696 19.8252 229.659 19.8666 229.636 19.9126C229.618 19.9586 229.609 20.0092 229.6 20.0599C229.567 20.1933 229.489 20.3083 229.429 20.4326C229.411 20.4694 229.397 20.5062 229.416 20.543C229.425 20.566 229.448 20.5798 229.466 20.5936C229.521 20.6304 229.577 20.6626 229.636 20.681C229.696 20.6994 229.765 20.704 229.825 20.6718C229.926 20.6212 229.963 20.4924 229.986 20.3819C230.014 20.2577 230.087 20.0829 230.078 19.954C230.069 19.8252 229.94 19.839 229.825 19.8206Z" fill="#998675"/>
<path d="M232.089 20.7546C231.868 20.6902 231.698 20.4141 231.827 20.2255C231.9 20.1196 232.038 20.0782 232.167 20.046C232.498 19.9586 232.83 19.8758 233.156 19.7883C233.386 19.7285 233.617 19.6687 233.856 19.6733C234.077 19.0061 234.247 18.3159 234.357 17.6211C234.293 17.4785 234.307 17.3037 234.394 17.1702C234.422 17.1978 234.477 17.1794 234.495 17.1472C234.518 17.1104 234.518 17.069 234.518 17.0276C234.523 16.954 234.546 16.8757 234.601 16.8251C234.656 16.7745 234.748 16.7561 234.804 16.8067C234.845 16.8435 234.859 16.9033 234.863 16.9632C234.882 17.1426 234.877 17.3267 234.845 17.5061C234.831 17.5751 234.808 17.6534 234.767 17.7086C234.73 18.3942 234.693 19.0797 234.661 19.7653C234.656 19.8205 234.656 19.8758 234.624 19.9218C234.587 19.9816 234.518 20.0092 234.454 20.0322C233.888 20.2393 233.322 20.4509 232.761 20.658C232.544 20.7362 232.31 20.819 232.089 20.7546Z" fill="#CEBFB2"/>
<path d="M228.546 23.5063C228.597 23.3176 228.652 23.129 228.748 22.9541C228.873 22.7287 229.07 22.5492 229.291 22.4204C229.429 22.3375 229.595 22.2731 229.751 22.3145C229.889 22.3559 229.991 22.4802 230.037 22.6136C230.083 22.7517 230.074 22.8989 230.051 23.0415C229.949 23.6351 229.356 24.5968 228.643 24.4403C228.518 24.4127 228.38 24.3391 228.366 24.2102C228.362 24.1642 228.376 24.1182 228.385 24.0722C228.44 23.8882 228.491 23.6995 228.546 23.5063Z" fill="#EADDD0"/>
<path d="M221.529 26.1289C221.874 26.9525 222.353 27.859 223.222 28.0752C223.793 28.2133 224.382 28.0108 224.92 27.7761C225.992 27.3068 227.009 26.7133 227.939 26.0047C228.528 25.5538 229.144 24.8958 228.965 24.178C228.937 24.0675 228.886 23.9571 228.79 23.8927C228.564 23.7455 228.284 23.9525 228.086 24.132C227.12 25.0154 225.9 25.6274 224.612 25.8758C224.451 25.908 224.281 25.931 224.124 25.8942C223.705 25.7976 223.498 25.3329 223.365 24.9234C222.822 23.3037 222.357 21.6611 221.971 20C221.897 19.678 221.824 19.3513 221.635 19.0798C221.345 18.6611 220.779 18.4494 220.282 18.5737C218.667 18.9832 219.629 20.9019 219.951 21.9004C220.42 23.3267 220.945 24.7393 221.529 26.1289Z" fill="#E0C74E"/>
</g>
<defs>
<filter id="filter0_b_53_178" x="-47" y="-20" width="341" height="136" filterUnits="userSpaceOnUse" color-interpolation-filters="sRGB">
<feFlood flood-opacity="0" result="BackgroundImageFix"/>
<feGaussianBlur in="BackgroundImage" stdDeviation="21"/>
<feComposite in2="SourceAlpha" operator="in" result="effect1_backgroundBlur_53_178"/>
<feBlend mode="normal" in="SourceGraphic" in2="effect1_backgroundBlur_53_178" result="shape"/>
</filter>
<filter id="filter1_b_53_178" x="-42" y="-75" width="341" height="136" filterUnits="userSpaceOnUse" color-interpolation-filters="sRGB">
<feFlood flood-opacity="0" result="BackgroundImageFix"/>
<feGaussianBlur in="BackgroundImage" stdDeviation="21"/>
<feComposite in2="SourceAlpha" operator="in" result="effect1_backgroundBlur_53_178"/>
<feBlend mode="normal" in="SourceGraphic" in2="effect1_backgroundBlur_53_178" result="shape"/>
</filter>
<filter id="filter2_d_53_178" x="211.717" y="2" width="45.5514" height="63.1459" filterUnits="userSpaceOnUse" color-interpolation-filters="sRGB">
<feFlood flood-opacity="0" result="BackgroundImageFix"/>
<feColorMatrix in="SourceAlpha" type="matrix" values="0 0 0 0 0 0 0 0 0 0 0 0 0 0 0 0 0 0 127 0" result="hardAlpha"/>
<feOffset dy="4"/>
<feGaussianBlur stdDeviation="2"/>
<feComposite in2="hardAlpha" operator="out"/>
<feColorMatrix type="matrix" values="0 0 0 0 0 0 0 0 0 0 0 0 0 0 0 0 0 0 0.25 0"/>
<feBlend mode="normal" in2="BackgroundImageFix" result="effect1_dropShadow_53_178"/>
<feBlend mode="normal" in="SourceGraphic" in2="effect1_dropShadow_53_178" result="shape"/>
</filter>
<radialGradient id="paint0_radial_53_178" cx="0" cy="0" r="1" gradientUnits="userSpaceOnUse" gradientTransform="translate(-2.68835 23.5471) rotate(11.0838) scale(255.511 154.273)">
<stop stop-color="#8DD2E5" stop-opacity="0.4"/>
<stop offset="1" stop-color="white" stop-opacity="0"/>
</radialGradient>
<radialGradient id="paint1_radial_53_178" cx="0" cy="0" r="1" gradientUnits="userSpaceOnUse" gradientTransform="translate(254.688 17.4529) rotate(-168.916) scale(255.511 154.273)">
<stop stop-color="#F8F1F1" stop-opacity="0.4"/>
<stop offset="1" stop-color="white" stop-opacity="0"/>
</radialGradient>
</defs>
</svg>
