<svg xmlns="http://www.w3.org/2000/svg" viewBox="0 0 383.22 382.99"><defs><style>.cls-1{fill:#23d0e2;}</style></defs><title>Instruksi1</title><g id="Layer_2" data-name="Layer 2"><g id="Layer_2-2" data-name="Layer 2"><path class="cls-1" d="M205.77,383H175.84c-.39-1.21-1.44-.71-2.21-.79-19.17-2-37.89-6.06-55.52-13.91q-97.68-43.46-116-148.91c-.7-4.08-.32-8.33-2.06-12.23v-3.74c1.2-.75.89-1.5,0-2.24V181.71c.88-.75,1.2-1.49,0-2.24v-3.74c1.2-.41.7-1.45.78-2.22A210.19,210.19,0,0,1,5.66,145.2C31.16,44.25,130.21-17.3,232.34,4.32,337.26,26.53,403.82,133.58,377.43,237.67,358.14,313.76,297,369,219.12,381,214.67,381.66,210.08,381.45,205.77,383ZM359.15,191.4c0-92.37-75.31-167.61-167.64-167.56S23.91,99.16,24,191.48,99.28,359.08,191.59,359,359.19,283.72,359.15,191.4Z"/><path class="cls-1" d="M0,179.47c1.2.75.88,1.49,0,2.24Z"/><path class="cls-1" d="M0,201.17c.89.74,1.2,1.49,0,2.24Z"/><path class="cls-1" d="M206.39,206.59c0,19.64.08,39.28-.08,58.92,0,3.24.59,4.29,4.09,4.22,12.59-.25,25.19-.18,37.78-.06,7.1.06,12.19,3.89,14.22,10.24A14.08,14.08,0,0,1,257,295.79a13.92,13.92,0,0,1-8.43,2.61c-18.74,0-37.48.14-56.22,0-9.19-.09-14.74-6.18-14.75-15.62,0-39.13-.06-78.26.08-117.39,0-3.62-.68-4.81-4.57-4.73-12.74.25-25.49.14-38.23,0-6.17-.06-10.51-3.35-12.89-8.88-2.26-5.26-1.27-10.3,2.37-14.71a14.22,14.22,0,0,1,11.51-5.11c18.44,0,36.88-.09,55.32,0,9.41.06,15.18,6.14,15.2,15.72Q206.43,177.13,206.39,206.59Z"/><path class="cls-1" d="M188.25,76.37c10.36,0,18.25,7.8,18.24,18A18.26,18.26,0,0,1,170,94.29C170,84,177.82,76.36,188.25,76.37Z"/></g></g></svg>