<svg width="246" height="121" viewBox="0 0 246 121" fill="none" xmlns="http://www.w3.org/2000/svg">
<path d="M5.2 18.816V5.28H11.968C17.632 5.28 19.84 7.776 19.84 12.096C19.84 16.224 17.632 18.816 11.968 18.816H5.2ZM23.296 12.096C23.296 6.576 19.744 2.448 11.968 2.448H1.84V36H5.2V21.696H11.968C19.84 21.696 23.296 17.52 23.296 12.096ZM27.3978 22.848C27.3978 31.056 32.7258 36.384 39.8778 36.384C45.1098 36.384 48.7578 33.552 50.2938 30.192V36H53.6538V9.792H50.2938V15.552C48.8058 12.24 45.2058 9.408 39.9258 9.408C32.7258 9.408 27.3978 14.64 27.3978 22.848ZM50.2938 22.896C50.2938 29.424 45.9258 33.456 40.5498 33.456C35.0298 33.456 30.8058 29.472 30.8058 22.848C30.8058 16.176 35.0298 12.336 40.5498 12.336C45.9258 12.336 50.2938 16.368 50.2938 22.896ZM80.9564 36H84.2684V20.64C84.2684 12.96 79.5644 9.312 73.6124 9.312C69.7244 9.312 66.3644 10.992 64.6844 14.256V9.792H61.3244V36H64.6844V21.696C64.6844 15.312 68.0924 12.24 72.9884 12.24C77.7884 12.24 80.9564 15.216 80.9564 21.024V36ZM90.1634 22.848C90.1634 31.056 95.4914 36.384 102.691 36.384C107.875 36.384 111.523 33.6 113.059 30.144V36H116.419V0.48H113.059V15.456C111.379 12 107.443 9.408 102.739 9.408C95.4914 9.408 90.1634 14.64 90.1634 22.848ZM113.059 22.896C113.059 29.424 108.691 33.456 103.315 33.456C97.7954 33.456 93.5714 29.472 93.5714 22.848C93.5714 16.176 97.7954 12.336 103.315 12.336C108.691 12.336 113.059 16.368 113.059 22.896ZM146.794 9.792H143.434V24.048C143.434 30.432 140.026 33.504 135.13 33.504C130.33 33.504 127.162 30.528 127.162 24.72V9.792H123.85V25.104C123.85 32.784 128.554 36.432 134.506 36.432C138.394 36.432 141.85 34.704 143.434 31.392V36H146.794V9.792ZM152.929 22.848C152.929 31.056 158.257 36.384 165.409 36.384C170.641 36.384 174.289 33.552 175.825 30.192V36H179.185V9.792H175.825V15.552C174.337 12.24 170.737 9.408 165.457 9.408C158.257 9.408 152.929 14.64 152.929 22.848ZM175.825 22.896C175.825 29.424 171.457 33.456 166.081 33.456C160.561 33.456 156.337 29.472 156.337 22.848C156.337 16.176 160.561 12.336 166.081 12.336C171.457 12.336 175.825 16.368 175.825 22.896ZM206.488 36H209.8V20.64C209.8 12.96 205.096 9.312 199.144 9.312C195.256 9.312 191.896 10.992 190.216 14.256V9.792H186.856V36H190.216V21.696C190.216 15.312 193.624 12.24 198.52 12.24C203.32 12.24 206.488 15.216 206.488 21.024V36ZM33.52 91.2C33.52 81.168 26.368 74.064 16.912 74.064C7.504 74.064 0.304 81.168 0.304 91.2C0.304 101.28 7.504 108.336 16.912 108.336C26.368 108.336 33.52 101.28 33.52 91.2ZM3.76 91.2C3.76 82.416 9.472 77.04 16.912 77.04C24.352 77.04 30.064 82.416 30.064 91.2C30.064 99.984 24.352 105.408 16.912 105.408C9.472 105.408 3.76 99.984 3.76 91.2ZM43.0281 93.36C43.0281 86.784 46.7241 84.816 51.0921 84.816H52.0041V81.312C47.4921 81.312 44.4681 83.232 43.0281 86.448V81.792H39.6681V108H43.0281V93.36ZM55.5228 94.848C55.5228 103.056 60.8508 108.384 68.0028 108.384C73.2348 108.384 76.8828 105.552 78.4188 102.192V108H81.7788V81.792H78.4188V87.552C76.9308 84.24 73.3308 81.408 68.0508 81.408C60.8508 81.408 55.5228 86.64 55.5228 94.848ZM78.4188 94.896C78.4188 101.424 74.0508 105.456 68.6748 105.456C63.1548 105.456 58.9308 101.472 58.9308 94.848C58.9308 88.176 63.1548 84.336 68.6748 84.336C74.0508 84.336 78.4188 88.368 78.4188 94.896ZM109.081 108H112.393V92.64C112.393 84.96 107.689 81.312 101.737 81.312C97.8494 81.312 94.4894 82.992 92.8094 86.256V81.792H89.4494V108H92.8094V93.696C92.8094 87.312 96.2174 84.24 101.113 84.24C105.913 84.24 109.081 87.216 109.081 93.024V108ZM118.288 94.848C118.288 103.056 123.616 108.384 130.816 108.384C136 108.384 139.648 105.552 141.184 102.192V108.672C141.184 114.624 137.296 117.936 132.304 117.936C127.504 117.936 124.192 115.488 123.088 111.936H119.776C120.832 117.408 125.536 120.864 132.304 120.864C139.504 120.864 144.544 116.016 144.544 108.672V81.792H141.184V87.504C139.696 84.192 136 81.408 130.816 81.408C123.616 81.408 118.288 86.64 118.288 94.848ZM141.184 94.896C141.184 101.424 136.816 105.456 131.44 105.456C125.92 105.456 121.696 101.472 121.696 94.848C121.696 88.176 125.92 84.336 131.44 84.336C136.816 84.336 141.184 88.368 141.184 94.896ZM162.987 77.232H172.347V108H175.707V77.232H185.019V74.448H162.987V77.232ZM213.028 81.792H209.668V96.048C209.668 102.432 206.26 105.504 201.364 105.504C196.564 105.504 193.396 102.528 193.396 96.72V81.792H190.084V97.104C190.084 104.784 194.788 108.432 200.74 108.432C204.628 108.432 208.084 106.704 209.668 103.392V108H213.028V81.792ZM219.163 94.848C219.163 103.056 224.491 108.384 231.643 108.384C236.875 108.384 240.523 105.552 242.059 102.192V108H245.419V81.792H242.059V87.552C240.571 84.24 236.971 81.408 231.691 81.408C224.491 81.408 219.163 86.64 219.163 94.848ZM242.059 94.896C242.059 101.424 237.691 105.456 232.315 105.456C226.795 105.456 222.571 101.472 222.571 94.848C222.571 88.176 226.795 84.336 232.315 84.336C237.691 84.336 242.059 88.368 242.059 94.896Z" fill="black"/>
</svg>
