<svg width="242" height="109" viewBox="0 0 242 109" fill="none" xmlns="http://www.w3.org/2000/svg">
<path d="M10.904 22.944V36H14.264V22.944L25.016 2.448H21.272L12.584 19.872L3.848 2.448H0.0560001L10.904 22.944ZM52.6378 9.792H49.2778V24.048C49.2778 30.432 45.8698 33.504 40.9738 33.504C36.1738 33.504 33.0058 30.528 33.0058 24.72V9.792H29.6938V25.104C29.6938 32.784 34.3978 36.432 40.3498 36.432C44.2378 36.432 47.6938 34.704 49.2778 31.392V36H52.6378V9.792ZM60.3088 36H63.6688V24.24L74.4688 36H79.0288L66.5008 22.848L78.9328 9.792H74.2288L63.6688 21.504V0.48H60.3088V36ZM2.84 108H6.2V81.648L18.008 108H20.456L32.264 81.552V108H35.624V74.88H32.024L19.208 103.584L6.392 74.88H2.84V108ZM54.4303 84.288C59.2783 84.288 63.6943 87.36 63.5503 93.456H45.1183C45.5023 87.36 49.6783 84.288 54.4303 84.288ZM66.5743 99.696H63.0223C62.0623 103.2 59.0383 105.552 54.5743 105.552C49.6783 105.552 45.4062 102.336 45.1183 96.192H66.8623C66.9583 95.28 66.9583 94.608 66.9583 93.552C66.9583 86.88 62.2543 81.408 54.5743 81.408C47.0383 81.408 41.7103 86.544 41.7103 94.896C41.7103 103.2 47.1343 108.384 54.5743 108.384C61.1503 108.384 65.3743 104.64 66.5743 99.696ZM111.41 108H114.722V92.64C114.722 84.96 110.114 81.312 104.306 81.312C100.13 81.312 96.2896 83.472 94.8496 87.744C93.2656 83.376 89.5216 81.312 85.1536 81.312C81.4576 81.312 78.1456 82.992 76.4656 86.304V81.792H73.1056V108H76.4656V93.792C76.4656 87.408 79.7776 84.24 84.5776 84.24C89.2336 84.24 92.3056 87.216 92.3056 93.024V108H95.6176V93.792C95.6176 87.408 98.9776 84.24 103.73 84.24C108.386 84.24 111.41 87.216 111.41 93.024V108ZM125.496 87.6V72.48H122.184V108H125.496V102.24C127.08 105.648 130.68 108.384 135.912 108.384C143.064 108.384 148.392 103.056 148.392 94.848C148.392 86.64 143.112 81.408 135.912 81.408C130.776 81.408 127.128 84.144 125.496 87.6ZM144.984 94.848C144.984 101.472 140.76 105.456 135.24 105.456C129.912 105.456 125.496 101.424 125.496 94.896C125.496 88.368 129.912 84.336 135.24 84.336C140.76 84.336 144.984 88.176 144.984 94.848ZM153.038 94.848C153.038 103.056 158.366 108.384 165.518 108.384C170.75 108.384 174.398 105.552 175.934 102.192V108H179.294V81.792H175.934V87.552C174.446 84.24 170.846 81.408 165.566 81.408C158.366 81.408 153.038 86.64 153.038 94.848ZM175.934 94.896C175.934 101.424 171.566 105.456 166.19 105.456C160.67 105.456 156.446 101.472 156.446 94.848C156.446 88.176 160.67 84.336 166.19 84.336C171.566 84.336 175.934 88.368 175.934 94.896ZM185.429 94.896C185.429 103.2 190.757 108.384 198.149 108.384C204.725 108.384 208.997 104.688 210.197 99.456H206.597C205.685 103.296 202.565 105.552 198.149 105.552C193.013 105.552 188.837 102 188.837 94.896C188.837 87.792 193.013 84.288 198.149 84.288C202.565 84.288 205.733 86.592 206.597 90.336H210.197C208.997 84.912 204.725 81.408 198.149 81.408C190.757 81.408 185.429 86.592 185.429 94.896ZM214.867 94.848C214.867 103.056 220.195 108.384 227.347 108.384C232.579 108.384 236.227 105.552 237.763 102.192V108H241.123V81.792H237.763V87.552C236.275 84.24 232.675 81.408 227.395 81.408C220.195 81.408 214.867 86.64 214.867 94.848ZM237.763 94.896C237.763 101.424 233.395 105.456 228.019 105.456C222.499 105.456 218.275 101.472 218.275 94.848C218.275 88.176 222.499 84.336 228.019 84.336C233.395 84.336 237.763 88.368 237.763 94.896Z" fill="black"/>
</svg>
